<?xml version="1.0" standalone="no"?>
<!DOCTYPE svg PUBLIC "-//W3C//DTD SVG 20010904//EN"
 "http://www.w3.org/TR/2001/REC-SVG-20010904/DTD/svg10.dtd">
<svg version="1.0" xmlns="http://www.w3.org/2000/svg"
 width="240.000000pt" height="240.000000pt" viewBox="0 0 240.000000 240.000000"
 preserveAspectRatio="xMidYMid meet">
<metadata>
Created by potrace 1.14, written by Peter Selinger 2001-2017
</metadata>
<g transform="translate(0.000000,240.000000) scale(0.100000,-0.100000)"
fill="#000000" stroke="none">
<path d="M1900 2339 c-80 -16 -245 -68 -282 -89 -10 -5 -25 -7 -34 -3 -10 4
-22 0 -28 -8 -6 -8 -29 -23 -51 -33 -74 -35 -275 -176 -336 -235 -9 -9 -39
-37 -66 -63 -27 -25 -62 -61 -77 -78 -14 -18 -32 -33 -39 -34 -23 -3 -37 -17
-37 -37 0 -11 -25 -56 -56 -99 l-56 -78 -72 0 c-79 1 -206 -9 -243 -18 l-24
-7 20 39 c53 98 0 142 -99 81 -43 -26 -46 -29 -111 -108 -30 -35 -61 -73 -71
-84 -70 -83 -188 -230 -188 -234 1 -12 26 -38 46 -49 18 -10 28 -4 84 47 34
32 69 58 76 59 44 4 184 3 209 -2 64 -12 74 -15 94 -26 12 -6 21 -7 21 -3 0 4
4 4 8 -2 4 -5 24 -18 45 -27 40 -19 42 -25 28 -75 -5 -18 -12 -60 -16 -95 -6
-55 -11 -68 -43 -100 -20 -20 -43 -44 -50 -53 -87 -105 -112 -131 -128 -132
-81 -7 -202 -118 -256 -237 -21 -46 -16 -58 22 -51 39 7 43 -5 22 -57 -33 -77
-48 -164 -43 -254 2 -34 29 -37 58 -7 29 28 109 67 160 78 31 6 31 6 28 -32
-2 -41 9 -91 24 -106 7 -7 16 0 27 19 21 37 74 75 135 98 51 18 118 78 145
129 22 41 26 152 8 188 -12 23 -11 29 2 40 9 8 18 9 22 3 4 -5 19 -15 33 -21
24 -10 30 -8 70 33 41 42 44 43 98 41 56 -3 177 13 199 27 7 4 18 -8 31 -36
47 -107 64 -188 64 -303 -1 -130 -10 -182 -40 -221 -25 -34 -25 -35 -7 -55 39
-43 47 -41 110 17 219 206 287 270 293 274 16 12 52 72 65 108 12 34 12 43 0
60 -17 24 -62 21 -110 -9 -41 -25 -45 -24 -39 9 13 67 18 124 19 221 l1 104
85 58 c46 33 95 59 107 59 14 0 23 6 23 15 0 8 39 54 88 103 123 124 245 289
312 422 12 25 31 53 41 63 10 9 16 23 13 30 -2 7 9 51 26 97 104 284 107 505
8 597 -62 59 -207 75 -368 42z"/>
</g>
</svg>
