<svg width="558" height="170" viewBox="0 0 558 170" fill="none" xmlns="http://www.w3.org/2000/svg">
<g clip-path="url(#clip0_802_35)">
<mask id="mask0_802_35" style="mask-type:luminance" maskUnits="userSpaceOnUse" x="0" y="0" width="558" height="170">
<path d="M558 0H0V170H558V0Z" fill="white"/>
</mask>
<g mask="url(#mask0_802_35)">
<path d="M368.242 132.219H385.058V57.2847C385.059 55.4805 385.776 53.7506 387.052 52.4748C388.328 51.1991 390.058 50.4819 391.863 50.4809H415.485V33.6705H386.2C381.436 33.6705 376.868 35.5623 373.499 38.9297C370.131 42.2971 368.238 46.8642 368.238 51.6264L368.242 132.219Z" fill="#B7B7B7"/>
<path d="M448.12 33.6667H431.304V132.219H448.12V33.6667Z" fill="#B7B7B7"/>
<path d="M349.728 50.4809V33.6705H319.301V4.87302H302.49V114.183C302.49 118.945 304.382 123.512 307.75 126.879C311.118 130.247 315.687 132.138 320.451 132.138H349.736V115.324H326.115C325.221 115.324 324.336 115.148 323.51 114.806C322.685 114.464 321.934 113.963 321.302 113.331C320.67 112.7 320.169 111.95 319.827 111.124C319.485 110.299 319.309 109.414 319.309 108.52V50.4809H349.728Z" fill="#B7B7B7"/>
<path d="M520.241 81.2399L555.862 33.6705H534.853L509.795 67.138L485.005 33.6705H464.077L499.275 81.1748L461.061 132.207H482.065L509.719 95.2766L537.072 132.207H558L520.241 81.2399Z" fill="#B7B7B7"/>
<path d="M450.527 10.811C450.527 12.9486 449.893 15.0382 448.705 16.8157C447.518 18.5933 445.829 19.979 443.854 20.7977C441.879 21.6164 439.706 21.8314 437.608 21.4155C435.511 20.9996 433.584 19.9714 432.071 18.461C430.558 16.9506 429.527 15.0257 429.108 12.9296C428.689 10.8334 428.9 8.66017 429.717 6.68444C430.533 4.70872 431.916 3.01921 433.693 1.82943C435.469 0.639662 437.558 0.00303054 439.697 6.79315e-07C441.117 -0.000502731 442.523 0.27879 443.836 0.821917C445.148 1.36504 446.341 2.16136 447.345 3.16536C448.349 4.16936 449.146 5.36136 449.69 6.67324C450.233 7.98512 450.512 9.39118 450.511 10.811" fill="#B7B7B7"/>
<path d="M177.507 40.099C170.486 33.8698 160.45 30.713 147.673 30.713C137.246 30.261 126.949 33.1611 118.292 38.9879C114.568 41.6879 111.464 45.153 109.19 49.1505C106.916 53.148 105.523 57.5856 105.105 62.1654L104.994 63.0887H122.45L122.584 62.4298C123.06 60.0758 124.001 57.8406 125.353 55.8552C126.705 53.8699 128.439 52.1742 130.455 50.8678C135.367 47.7748 141.102 46.2416 146.903 46.4699C153.183 46.0906 159.395 47.9383 164.446 51.6877C166.509 53.4646 168.138 55.6892 169.209 58.1916C170.281 60.6941 170.766 63.4082 170.628 66.1266V72.0647H142.457C129.428 72.0647 119.357 74.7885 112.471 80.1596C108.988 82.957 106.223 86.5434 104.403 90.6219C102.583 94.7004 101.761 99.1536 102.005 103.613C101.854 107.79 102.709 111.942 104.497 115.721C106.285 119.499 108.953 122.793 112.279 125.327C119.06 129.775 126.852 132.442 134.937 133.081C143.022 133.721 151.138 132.312 158.533 128.985C163.566 126.417 167.963 122.761 171.406 118.282L171.436 132.073H188.129V67.1074C188.435 62.1062 187.643 57.0985 185.809 52.4356C183.975 47.7727 181.142 43.5673 177.51 40.1143M170.612 91.0664C170.757 94.7177 170.114 98.3572 168.725 101.737C167.336 105.117 165.235 108.159 162.565 110.654C156.366 115.873 148.407 118.526 140.315 118.071C134.929 118.359 129.6 116.855 125.159 113.796C123.405 112.529 121.989 110.852 121.034 108.911C120.079 106.97 119.615 104.825 119.683 102.663C119.517 100.444 119.904 98.2179 120.807 96.1839C121.71 94.15 123.103 92.3709 124.86 91.0051C129.659 88.0426 135.268 86.6636 140.894 87.063H170.609L170.612 91.0664Z" fill="#B7B7B7"/>
<path d="M290.545 33.6705L240.286 157.373C238.767 161.108 236.17 164.305 232.825 166.557C229.48 168.809 225.54 170.013 221.508 170.015H201.726V153.205H217.116C219.214 153.205 221.263 152.573 222.995 151.391C224.728 150.208 226.063 148.531 226.827 146.577L234.211 127.694L195.84 33.682H214.004L243.274 105.398L272.418 33.682L290.545 33.6705Z" fill="#B7B7B7"/>
<path d="M0 0.0154363V132.219H16.8156V84.1937H52.9033C61.2318 84.1931 69.3731 81.7237 76.2978 77.0978C83.2224 72.4719 88.6196 65.8972 91.8067 58.2051C94.9938 50.5129 95.8277 42.0487 94.2031 33.8828C92.5784 25.7168 88.5681 18.2158 82.6793 12.3282C78.7768 8.40993 74.1358 5.30418 69.0248 3.19071C63.9138 1.07724 58.4342 -0.00200208 52.9033 0.0154363H0ZM52.9033 67.3833H16.8156V16.8105H52.9033C56.2247 16.8105 59.5136 17.4645 62.5822 18.7351C65.6509 20.0058 68.4391 21.8683 70.7877 24.2161C73.1363 26.564 74.9993 29.3514 76.2704 32.419C77.5414 35.4867 78.1957 38.7746 78.1957 42.095C78.1957 45.4154 77.5414 48.7033 76.2704 51.7709C74.9993 54.8386 73.1363 57.6259 70.7877 59.9738C68.4391 62.3217 65.6509 64.1841 62.5822 65.4548C59.5136 66.7255 56.2247 67.3833 52.9033 67.3833Z" fill="#B7B7B7"/>
</g>
</g>
<defs>
<clipPath id="clip0_802_35">
<rect width="558" height="170" fill="white"/>
</clipPath>
</defs>
</svg>
