<svg width="65" height="18" viewBox="0 0 65 18" fill="none" xmlns="http://www.w3.org/2000/svg">
<path d="M27.1737 1.4646V3.44616C26.5597 3.00334 26.0086 2.78193 25.5177 2.78193C24.9878 2.78193 24.5554 2.97124 24.2198 3.3479C23.8843 3.70622 23.7162 4.18441 23.7162 4.78183C23.7162 5.30915 23.8355 5.7618 24.0742 6.1378C24.1967 6.33956 24.3982 6.60028 24.6805 6.91864C25.032 7.31334 25.3949 7.69737 25.7686 8.07023C26.5892 8.90871 27.148 9.63452 27.4432 10.2463C27.7402 10.8385 27.8878 11.563 27.8878 12.4225C27.8878 13.5865 27.5638 14.5468 26.9126 15.3001C26.2594 16.0351 25.4241 16.4033 24.4046 16.4033C23.5461 16.4033 22.8134 16.1655 22.2065 15.6899V13.6808C22.9225 14.2075 23.5744 14.4715 24.1621 14.4715C24.7113 14.4715 25.1392 14.2868 25.4491 13.9206C25.7603 13.5531 25.9149 13.0526 25.9149 12.4225C25.9149 11.8768 25.7949 11.3848 25.5562 10.9492C25.4024 10.6972 25.2304 10.4572 25.0417 10.2313C24.7822 9.91695 24.508 9.6157 24.2198 9.32861C23.7806 8.89648 23.3577 8.44744 22.952 7.98246C22.6158 7.59204 22.3682 7.2501 22.2065 6.95729C21.896 6.38607 21.7413 5.66354 21.7413 4.79231C21.7413 3.61451 22.0442 2.68105 22.6524 1.99127C23.2658 1.29559 24.0864 0.947754 25.1206 0.947754C25.8366 0.947754 26.5212 1.12004 27.1737 1.4646V1.4646ZM29.1049 1.15213H34.4583V2.87036H31.1182V7.64117H34.0811V9.35874H31.1182V14.4997H34.4583V16.2166H29.1049V1.15213V1.15213ZM35.9488 1.15213H41.3028V2.87036H37.9621V7.64117H40.9256V9.35874H37.9621V14.4997H41.3028V16.2166H35.9488V1.15213V1.15213ZM44.6269 14.442C45.8524 14.442 46.6723 14.068 47.0861 13.3192C47.5122 12.5718 47.7252 11.1182 47.7252 8.9585C47.7252 6.63565 47.5212 5.03796 47.1157 4.16738C46.7083 3.29615 45.9634 2.86053 44.8791 2.86053H44.6269V14.442V14.442ZM42.6123 1.15213H45.0914C45.8466 1.15213 46.4824 1.23729 47.0002 1.4063C47.4762 1.56875 47.9023 1.85829 48.2769 2.27425C48.8383 2.89918 49.2381 3.71277 49.4786 4.7137C49.7167 5.68319 49.836 7.07192 49.836 8.87989C49.836 10.5398 49.7038 11.8925 49.4382 12.9393C49.1809 13.9415 48.7543 14.7047 48.1615 15.232C47.4307 15.8884 46.1238 16.2166 44.2407 16.2166H42.6123V1.15213V1.15213ZM53.4341 7.82655C54.2149 7.82655 54.7679 7.6451 55.09 7.28023C55.4127 6.91667 55.5744 6.30091 55.5744 5.43558C55.5744 4.96786 55.5411 4.56762 55.4718 4.23485C55.4044 3.90405 55.2972 3.63416 55.1529 3.42651C55.0123 3.22207 54.8176 3.06278 54.5915 2.96731C54.3624 2.87036 54.0898 2.82123 53.7728 2.82123H53.4341V7.82655V7.82655ZM51.4207 1.15148H54.0731C55.1696 1.15148 55.9863 1.41612 56.5227 1.94279C57.2009 2.62602 57.5396 3.67019 57.5396 5.07398C57.5396 6.15484 57.36 7.02148 57.0026 7.67523C56.644 8.32898 56.132 8.73381 55.4679 8.88906L58.2178 16.2166H56.1743L53.4341 8.84059V16.2166H51.4207V1.15213V1.15148ZM64.2834 1.4646V3.44616C63.67 3.00334 63.1189 2.78193 62.6281 2.78193C62.0981 2.78193 61.6657 2.97124 61.3295 3.3479C60.9946 3.70622 60.8265 4.18441 60.8265 4.78183C60.8265 5.30915 60.9465 5.7618 61.1851 6.1378C61.307 6.33956 61.5091 6.60028 61.7895 6.91864C62.1417 7.31338 62.5052 7.69741 62.8796 8.07023C63.6989 8.90871 64.2577 9.63452 64.5541 10.2463C64.8506 10.8385 65 11.563 65 12.4225C65 13.5865 64.6728 14.5468 64.0229 15.3001C63.3704 16.0351 62.5331 16.4033 61.5136 16.4033C60.6558 16.4033 59.9231 16.1655 59.3162 15.6899V13.6808C60.0328 14.2075 60.6853 14.4715 61.2718 14.4715C61.821 14.4715 62.2502 14.2868 62.5607 13.9206C62.87 13.5531 63.0246 13.0526 63.0246 12.4225C63.0246 11.8768 62.9046 11.3848 62.6666 10.9492C62.513 10.6973 62.3415 10.4574 62.1533 10.2313C61.8927 9.91734 61.6178 9.61611 61.3295 9.32861C60.8904 8.89638 60.4675 8.44734 60.0617 7.98246C59.7255 7.59204 59.4779 7.2501 59.3162 6.95729C59.0063 6.38607 58.851 5.66354 58.851 4.79231C58.851 3.61451 59.1551 2.68105 59.7608 1.99127C60.3748 1.29559 61.1973 0.947754 62.2309 0.947754C62.947 0.947754 63.6309 1.12004 64.2834 1.4646V1.4646Z" fill="#B7B7B7"/>
<path d="M2.44348 6.40454C4.62746 4.20485 13.6329 2.75061 14.3983 2.63008C11.096 -0.671427 5.76244 -0.664221 2.47108 2.65432C1.04469 4.08487 0.175098 5.99522 0.0237151 8.03078C-0.127668 10.0663 0.449438 12.0888 1.64791 13.7229C0.935491 12.5958 0.625608 11.2524 0.770539 9.91921C0.91547 8.58602 1.50634 7.34466 2.44348 6.40454V6.40454Z" fill="#B7B7B7"/>
<path d="M14.4477 2.68018C14.3283 3.45118 12.8867 12.5284 10.7033 14.7281C8.72981 16.7175 5.69764 16.9815 3.4386 15.5292C6.74729 17.9909 11.4283 17.7217 14.4246 14.7025C15.2065 13.9188 15.828 12.9843 16.2529 11.9532C16.6779 10.922 16.8979 9.81496 16.9 8.69628C16.9022 7.5776 16.6865 6.46964 16.2655 5.43684C15.8445 4.40403 15.2266 3.46698 14.4477 2.68018V2.68018Z" fill="#B7B7B7"/>
<path d="M11.7518 12.0574C9.9919 13.8307 7.07715 13.7658 5.23834 11.9133C3.39954 10.0608 3.33538 7.12155 5.09462 5.3483C5.50524 4.9343 6.24051 4.56223 7.1227 4.23535C5.12542 4.82753 3.28148 5.5612 2.44356 6.40491C1.90214 6.94788 1.47209 7.59553 1.17853 8.31006C0.884961 9.02459 0.733765 9.79167 0.733765 10.5665C0.733765 11.3414 0.884961 12.1084 1.17853 12.823C1.47209 13.5375 1.90214 14.1852 2.44356 14.7281C4.72507 17.0274 8.42257 17.0274 10.7034 14.7281C11.5407 13.8844 12.2683 12.0286 12.8547 10.0182C12.5313 10.9045 12.163 11.6434 11.7518 12.0574V12.0574Z" fill="#B7B7B7"/>
</svg>
