<svg width="65" height="17" viewBox="0 0 65 17" fill="none" xmlns="http://www.w3.org/2000/svg">
<path d="M59.9885 7.30882L59.9885 7.69802C60.5133 7.00611 61.1694 6.66016 61.9566 6.66016C62.727 6.66016 63.3407 6.96719 63.7978 7.58126C64.255 8.18668 64.4835 9.004 64.4835 10.0332C64.4835 11.097 64.2507 11.9403 63.7851 12.563C63.3195 13.1857 62.6931 13.4971 61.9059 13.4971C61.5926 13.4971 61.3091 13.4366 61.0551 13.3155C60.8943 13.2376 60.6488 13.0733 60.3186 12.8225L60.3186 13.8214C60.3186 14.0895 60.4202 14.2236 60.6234 14.2236C60.708 14.2236 60.8054 14.2106 60.9154 14.1847C61.0678 14.1674 61.1778 14.1587 61.2456 14.1587C61.635 14.1587 61.8297 14.3836 61.8297 14.8333C61.8297 15.3523 61.5672 15.6117 61.0424 15.6117C60.89 15.6117 60.6572 15.5945 60.344 15.5599C59.9546 15.5166 59.5695 15.495 59.1885 15.495C59.0277 15.495 58.6679 15.5296 58.1092 15.5988C58.0076 15.6074 57.9314 15.6117 57.8806 15.6117C57.6605 15.6117 57.4785 15.5296 57.3346 15.3653C57.1907 15.2096 57.1188 15.0063 57.1188 14.7555C57.1188 14.2712 57.3262 14.029 57.741 14.029C57.8087 14.029 57.8722 14.042 57.9314 14.0679C58.0838 14.1025 58.1558 14.1198 58.1473 14.1198C58.2997 14.1198 58.3759 13.8733 58.3759 13.3803L58.3759 9.08617C58.3759 8.59318 58.3039 8.34669 58.16 8.34669C58.1346 8.34669 58.0584 8.36831 57.9314 8.41155C57.8468 8.42885 57.7791 8.4375 57.7283 8.4375C57.3219 8.4375 57.1188 8.19533 57.1188 7.711C57.1188 7.46018 57.1865 7.2526 57.3219 7.08828C57.4574 6.92395 57.6309 6.84178 57.8426 6.84178L57.9314 6.84178L58.3759 6.90665C58.4351 6.92395 58.5579 6.9326 58.7441 6.9326C58.9896 6.9326 59.2181 6.9153 59.4298 6.8807C59.5398 6.8634 59.6202 6.85476 59.671 6.85476C59.8827 6.85476 59.9885 7.00611 59.9885 7.30882ZM61.3979 8.30777C61.0678 8.30777 60.8096 8.46345 60.6234 8.77481C60.4371 9.08617 60.344 9.51861 60.344 10.0721C60.344 10.617 60.4371 11.0495 60.6234 11.3695C60.8096 11.6895 61.0593 11.8495 61.3725 11.8495C61.6942 11.8495 61.9524 11.6895 62.1471 11.3695C62.3418 11.0495 62.4392 10.617 62.4392 10.0721C62.4392 9.53591 62.3418 9.10779 62.1471 8.78778C61.9609 8.46777 61.7112 8.30777 61.3979 8.30777Z" fill="#B7B7B7"/>
<path d="M51.2432 14.5968C50.2342 14.5968 49.427 14.2434 48.8216 13.5365C48.2163 12.8199 47.9136 11.8626 47.9136 10.6649C47.9136 9.46713 48.2163 8.51481 48.8216 7.80794C49.4366 7.09125 50.2582 6.73291 51.2864 6.73291C52.3338 6.73291 53.1602 7.08144 53.7656 7.77849C54.3709 8.47554 54.6736 9.42295 54.6736 10.6207C54.6736 11.8185 54.3613 12.7806 53.7367 13.5071C53.1121 14.2336 52.2809 14.5968 51.2432 14.5968ZM51.3152 7.70486C50.6426 7.70486 50.1141 7.94539 49.7297 8.42645C49.3453 8.90752 49.1339 9.58985 49.0955 10.4734C49.0955 10.4734 49.0955 10.5373 49.0955 10.6649C49.0955 11.5877 49.2829 12.3142 49.6576 12.8444C50.042 13.3647 50.5753 13.6249 51.2576 13.6249C51.959 13.6249 52.5068 13.3647 52.9007 12.8444C53.3043 12.3142 53.5061 11.5828 53.5061 10.6502C53.5061 8.68662 52.7758 7.70486 51.3152 7.70486Z" fill="#9B9B9B"/>
<path d="M33.2617 16.8116L33.3772 0.194433L47.2151 0.335567L46.8728 16.9628L33.2617 16.8116Z" fill="#EBEBEB"/>
<path d="M37.1065 11.8932L37.0889 4.58185C37.0867 3.68237 36.7823 3.23339 36.1755 3.23492C36.0803 3.23516 35.9555 3.24763 35.8009 3.27233C35.5749 3.30936 35.4143 3.32799 35.3192 3.32823C34.9385 3.32919 34.7476 3.12911 34.7467 2.72799C34.7456 2.30256 35.0069 2.08919 35.5303 2.08787C35.6136 2.08766 35.7028 2.09351 35.798 2.10543L36.6727 2.21263C36.9584 2.24838 37.3153 2.26571 37.7436 2.26464C38.041 2.26389 38.3979 2.24476 38.8142 2.20725C39.7896 2.11971 40.5271 2.07532 41.0267 2.07406C41.7882 2.07215 42.4426 2.13128 42.9902 2.25145C43.7758 2.41965 44.3894 2.79492 44.831 3.37726C45.2845 3.95958 45.5122 4.66401 45.5142 5.49056C45.517 6.63314 45.1324 7.50928 44.3606 8.11898C43.6006 8.72866 42.495 9.03531 41.0435 9.03896L39.7765 9.04215C39.3839 9.04313 39.1519 9.03764 39.0805 9.02566L39.0448 9.02575C38.8544 9.02623 38.7296 9.06301 38.6703 9.13609C38.6228 9.19698 38.5994 9.34898 38.6 9.59209L38.6009 9.95674C38.6046 11.5004 38.6485 12.4363 38.7325 12.7643C38.8285 13.0922 39.0906 13.2557 39.5189 13.2546C39.6498 13.2542 39.7747 13.2357 39.8936 13.1989C40.1552 13.174 40.3158 13.1614 40.3753 13.1613C40.7441 13.1603 40.929 13.3544 40.9299 13.7433C40.931 14.1809 40.6698 14.4004 40.1463 14.4017C40.1463 14.4017 40.063 14.3897 39.8964 14.3658L39.0038 14.2404C38.7539 14.2046 38.3791 14.1873 37.8794 14.1886C37.463 14.1896 37.124 14.2087 36.8623 14.2458L35.8276 14.3943C35.8038 14.3943 35.7682 14.4005 35.7206 14.4128C35.673 14.4129 35.6314 14.413 35.5957 14.4131C35.0603 14.4144 34.7921 14.2024 34.7911 13.777C34.7907 13.6068 34.8439 13.4669 34.9507 13.3572C35.0575 13.2354 35.1882 13.1743 35.3429 13.1739C35.4737 13.1736 35.6344 13.1914 35.8248 13.2274C35.9082 13.2515 36.0331 13.2633 36.1997 13.2629C36.8064 13.2614 37.1087 12.8048 37.1065 11.8932ZM38.7106 3.62967C38.6276 3.75143 38.5867 4.0858 38.5881 4.63278L38.5945 7.33123C38.5953 7.65942 38.8218 7.84725 39.274 7.89474C39.2383 7.89483 39.5834 7.89396 40.3091 7.89214C41.1538 7.89002 41.8555 7.8214 42.4144 7.68629C43.4726 7.42837 44.0003 6.71596 43.9975 5.54907C43.9938 4.00536 43.0283 3.23593 41.1009 3.24077C39.6733 3.24436 38.8765 3.37399 38.7106 3.62967Z" fill="#B7B7B7"/>
<path d="M32.9954 10.0228C32.7109 10.452 32.3804 10.9184 32.0038 11.4217C31.6362 11.9147 31.2284 12.3756 30.7803 12.8044C30.3412 13.2229 29.8651 13.5795 29.352 13.8744C28.8484 14.1687 28.3232 14.3315 27.7763 14.3628C27.335 14.388 26.9783 14.2904 26.7064 14.07C26.4435 13.8392 26.2824 13.5338 26.2231 13.1537C26.0494 13.3209 25.861 13.4841 25.658 13.6432C25.455 13.8023 25.2365 13.9427 25.0026 14.0642C24.7783 14.1852 24.5384 14.2874 24.2832 14.3709C24.0375 14.4538 23.7803 14.5029 23.5117 14.5183C22.9936 14.5479 22.5941 14.4577 22.3131 14.2476C22.0225 14.0381 21.8664 13.7373 21.8449 13.3452C21.832 13.1099 21.8922 12.8901 22.0254 12.6859C22.158 12.4718 22.3682 12.3565 22.656 12.34C22.8479 12.3291 23.0094 12.3788 23.1406 12.4893C23.2718 12.5998 23.3427 12.7531 23.3535 12.9491C23.3642 13.1452 23.3059 13.3107 23.1786 13.4459C23.0609 13.5804 22.9204 13.6524 22.7573 13.6617C22.7697 13.8872 22.8465 14.0598 22.9878 14.1795C23.1291 14.2992 23.3101 14.3528 23.5308 14.3402C23.9337 14.3171 24.3289 14.1519 24.7163 13.8446C25.1127 13.5269 25.4627 13.1529 25.7664 12.7226C26.0695 12.2824 26.3089 11.8213 26.4846 11.3393C26.6597 10.8474 26.7368 10.4104 26.7158 10.0281C26.7024 9.78301 26.6386 9.58508 26.5245 9.43428C26.4098 9.27368 26.223 9.20079 25.9639 9.21561C25.8104 9.2244 25.6591 9.27239 25.5099 9.35959C25.3607 9.44679 25.2221 9.55305 25.0942 9.67836C24.9664 9.80367 24.8489 9.94314 24.7418 10.0968C24.6342 10.2406 24.5407 10.3787 24.4614 10.511L24.3566 10.4433C24.4717 10.2597 24.5963 10.0756 24.7306 9.89091C24.8739 9.69589 25.0278 9.51992 25.1925 9.363C25.3661 9.19574 25.5561 9.06195 25.7623 8.96166C25.9776 8.85101 26.21 8.78855 26.4595 8.77428C26.8624 8.75122 27.1903 8.85046 27.443 9.07199C27.6958 9.29352 27.8707 9.58834 27.9679 9.95643C28.2764 9.61429 28.6304 9.31379 29.0301 9.05494C29.4292 8.78627 29.8638 8.6385 30.3339 8.6116C30.4874 8.60282 30.6465 8.60846 30.8112 8.62854C30.976 8.64861 31.1276 8.69402 31.2662 8.76475C31.4048 8.83548 31.5208 8.93209 31.6142 9.05458C31.707 9.16727 31.7587 9.32164 31.7695 9.51768C31.7861 9.82155 31.6788 10.0588 31.4476 10.2293C31.2254 10.3895 30.9847 10.4771 30.7257 10.4919C30.6202 10.4979 30.5234 10.4887 30.4355 10.4642C30.4743 10.2948 30.5041 10.1358 30.5248 9.98713C30.5546 9.8281 30.5638 9.64566 30.5525 9.43981C30.5413 9.23396 30.4892 9.0747 30.3964 8.96201C30.3132 8.84877 30.1901 8.79682 30.027 8.80615C29.7775 8.82043 29.5007 8.94935 29.1964 9.19291C28.8922 9.43648 28.6106 9.74266 28.3517 10.1115C28.0928 10.4803 27.8798 10.8956 27.7126 11.3575C27.5449 11.8096 27.4732 12.2562 27.4973 12.6973C27.5183 13.0796 27.6394 13.3578 27.8607 13.532C28.0814 13.6963 28.3645 13.7686 28.7099 13.7489C29.0937 13.7269 29.4896 13.5764 29.8978 13.2974C30.315 13.008 30.7101 12.6659 31.0831 12.2709C31.4656 11.8753 31.8138 11.467 32.1275 11.0459C32.4503 10.6144 32.7095 10.2505 32.905 9.9542L32.9954 10.0228Z" fill="#777777"/>
<path d="M18.8715 11.5729C18.8715 10.9249 18.8413 10.4055 18.7809 10.0147C18.7205 9.62386 18.6098 9.34616 18.4487 9.1816C18.2977 9.00675 18.0863 8.91933 17.8145 8.91933C17.4823 8.91933 17.2307 9.09932 17.0595 9.4593C16.8985 9.81928 16.8179 10.4672 16.8179 11.4032C16.8179 12.0512 16.8481 12.5706 16.9085 12.9614C16.979 13.3522 17.0897 13.6351 17.2407 13.8099C17.3917 13.9848 17.6031 14.0722 17.8749 14.0722C18.2071 14.0722 18.4538 13.8922 18.6148 13.5322C18.786 13.162 18.8715 12.5088 18.8715 11.5729ZM14.6737 11.5575C14.6737 10.7038 14.8146 10.025 15.0965 9.52101C15.3884 9.00675 15.781 8.63649 16.2743 8.41021C16.7676 8.18394 17.3213 8.0708 17.9353 8.0708C18.5796 8.0708 19.1282 8.19422 19.5812 8.44107C20.0342 8.67763 20.3816 9.04275 20.6232 9.53644C20.8748 10.0301 21.0007 10.6575 21.0007 11.4186C21.0007 12.2826 20.8597 12.9717 20.5779 13.4859C20.296 13.9899 19.9084 14.355 19.4151 14.5813C18.9319 14.7973 18.3783 14.9053 17.7541 14.9053C17.1199 14.9053 16.5713 14.787 16.1082 14.5505C15.6451 14.3036 15.2878 13.9333 15.0361 13.4397C14.7945 12.946 14.6737 12.3186 14.6737 11.5575Z" fill="#B7B7B7"/>
<path d="M0 15.8984V0.331543H14.2358L13.5215 15.8984H0Z" fill="#B7B7B7"/>
<path d="M6.74056 14.1717L3.40439 6.51539C3.13539 5.897 2.95045 5.50191 2.84957 5.33013C2.74869 5.15345 2.61419 5.02093 2.44606 4.93259C2.27793 4.84425 2.00892 4.80008 1.63904 4.80008V3.98291H6.83423V4.80008C6.10887 4.80008 5.74619 4.98167 5.74619 5.34486C5.74619 5.54608 5.84947 5.87736 6.05603 6.33871L8.05917 10.8663L9.93982 6.33135C10.0791 5.99761 10.1488 5.7154 10.1488 5.48473C10.1488 5.0283 9.7861 4.80008 9.06074 4.80008V3.98291H12.4978V4.80008C12.0991 4.80008 11.794 4.90805 11.5827 5.124C11.3761 5.33995 11.0471 5.9927 10.5955 7.08226L7.62684 14.1717H6.74056Z" fill="white"/>
</svg>
