<svg width="65" height="35" viewBox="0 0 65 35" fill="none" xmlns="http://www.w3.org/2000/svg">
<path fill-rule="evenodd" clip-rule="evenodd" d="M33.1459 15.9494H35.5448C37.7955 15.9494 38.9582 14.5217 38.9582 11.9417C38.9582 9.43693 37.7955 8.15958 35.5698 8.15958H33.1459V15.9494ZM35.0502 17.4022H33.1459V24.2405H31.6125V6.70654H35.5698C38.76 6.70654 40.5161 8.58526 40.5161 11.8415C40.5161 14.8974 39.0817 16.8513 36.7074 17.302L40.9614 24.2405H39.1806L35.0502 17.4022Z" fill="#B7B7B7"/>
<path fill-rule="evenodd" clip-rule="evenodd" d="M49.4191 22.7128L47.663 20.5588L48.6524 19.6819L50.4332 21.8612C50.9524 21.1346 51.2245 20.1079 51.2245 18.8053V12.1424C51.2245 9.43724 50.0622 7.88432 47.8115 7.88432C45.5608 7.88432 44.3985 9.43724 44.3985 12.1424V18.8053C44.3985 21.5104 45.5608 23.0633 47.8115 23.0633C48.4296 23.0633 48.9738 22.9381 49.4191 22.7128ZM51.818 25.6935L50.3839 23.915C49.6665 24.3409 48.8009 24.5663 47.8115 24.5663C44.6952 24.5663 42.8405 22.3368 42.8405 18.8053V12.1424C42.8405 8.61084 44.6952 6.38135 47.8115 6.38135C50.9278 6.38135 52.7828 8.61084 52.7828 12.1424V18.8053C52.7828 20.6088 52.2882 22.0865 51.3977 23.0886L52.8075 24.8169L51.818 25.6935Z" fill="#B7B7B7"/>
<path fill-rule="evenodd" clip-rule="evenodd" d="M55.4287 19.2808V11.6661C55.4287 8.28467 57.3331 6.40625 60.0537 6.40625C62.8729 6.40625 64.6784 8.20946 64.8515 11.4657H63.3678C63.1946 8.98591 62.0073 7.80874 60.0537 7.80874C58.1986 7.80874 56.9127 9.06112 56.9127 11.6661V19.2808C56.9127 21.8858 58.2482 23.1381 60.1526 23.1381C62.1312 23.1381 63.2689 21.9107 63.5163 19.4812H65.0001C64.7529 22.6872 62.9968 24.5409 60.1526 24.5409C57.3827 24.5409 55.4287 22.6622 55.4287 19.2808Z" fill="#B7B7B7"/>
<path fill-rule="evenodd" clip-rule="evenodd" d="M0 17.7188L17.2432 27.8191V34.5414L2.22996 25.7628C0.849952 24.9559 0 23.4648 0 21.851V17.7188Z" fill="#B7B7B7"/>
<path fill-rule="evenodd" clip-rule="evenodd" d="M6.69226 9.54644L17.2371 3.37376L11.4949 0.0161133L6.69226 2.84059V9.54644Z" fill="#B7B7B7"/>
<path fill-rule="evenodd" clip-rule="evenodd" d="M16.2933 21.6523L12.3126 23.9799L16.2933 26.3077V21.6523Z" fill="#B7B7B7"/>
<path fill-rule="evenodd" clip-rule="evenodd" d="M5.76867 20.1538L5.74822 3.37842L0 6.73758V16.7807L5.76867 20.1538Z" fill="#B7B7B7"/>
<path fill-rule="evenodd" clip-rule="evenodd" d="M17.2463 11.0557L17.2433 27.8192L20.7555 25.7654C22.1355 24.9585 22.9855 23.4674 22.9855 21.8536V14.4133L17.2463 11.0557Z" fill="#B7B7B7"/>
<path fill-rule="evenodd" clip-rule="evenodd" d="M12.3125 7.21646L22.9858 13.4573V6.73506L18.0607 3.85547L12.3125 7.21646Z" fill="#B7B7B7"/>
</svg>
