<svg xmlns="http://www.w3.org/2000/svg" width="124" height="25" viewBox="0 0 124 25" fill="#B7B7B7">
  <g clip-path="url(#clip0_4197_90096)">
    <path d="M21.7657 2.53761C19.3537 0.107581 15.4425 0.107581 13.032 2.53761L9.58654 6.01112C9.85943 5.98107 10.1339 5.96843 10.4115 5.96843C11.2834 5.96843 12.1318 6.10754 12.9348 6.37631L14.8873 4.40954C15.5569 3.73127 16.4493 3.35974 17.3981 3.35974C18.3469 3.35974 19.2377 3.73127 19.9089 4.40954C20.5801 5.08463 20.9486 5.98265 20.9486 6.93916C20.9486 7.89567 20.5801 8.79527 19.9089 9.47038L16.0886 13.3217C15.4174 13.9984 14.5266 14.37 13.5778 14.37C12.6274 14.37 11.7366 13.9984 11.0654 13.3217C10.7392 12.9945 10.4852 12.6118 10.3095 12.196C9.8751 12.2198 9.46735 12.4032 9.15683 12.7162L8.13904 13.7439C8.4166 14.264 8.77419 14.7541 9.21015 15.1937C11.6222 17.6253 15.5318 17.6253 17.9438 15.1937L21.7657 11.3407C24.176 8.91069 24.176 4.9692 21.7657 2.53761Z" fill="#B7B7B7"/>
    <path d="M13.6192 18.8067C12.7456 18.8067 11.8893 18.6644 11.0676 18.383L9.10254 20.3656C8.43133 21.0422 7.54055 21.4138 6.59175 21.4138C5.64293 21.4138 4.75217 21.0422 4.08094 20.3656C3.40973 19.6905 3.04119 18.7909 3.04119 17.8343C3.04119 16.8794 3.40973 15.9798 4.08094 15.3031L7.90124 11.4518C8.57247 10.7767 9.46325 10.4036 10.412 10.4036C11.3624 10.4036 12.2516 10.7767 12.9228 11.4518C13.2491 11.7806 13.5047 12.1616 13.6803 12.579C14.1179 12.5553 14.5256 12.3719 14.8361 12.0589L15.8524 11.0328C15.5732 10.5111 15.2157 10.021 14.7797 9.57984C12.3677 7.14982 8.45798 7.14982 6.04599 9.57984L2.22569 13.4328C-0.186312 15.8644 -0.186312 19.8059 2.22569 22.2375C4.63768 24.6691 8.5458 24.6691 10.9578 22.2375L14.3986 18.7703C14.1414 18.794 13.8826 18.8067 13.6207 18.8067L13.6192 18.8067Z" fill="#B7B7B7"/>
    <path d="M35.2748 6.08789C36.2613 6.08789 37.1035 6.27129 37.803 6.63809C38.5055 7.00171 39.0356 7.5108 39.3962 8.16851C39.7555 8.82305 39.9358 9.58351 39.9358 10.4515C39.9358 11.321 39.7555 12.0815 39.3962 12.7345C39.0356 13.3843 38.5055 13.8918 37.803 14.2586C37.1035 14.6222 36.2613 14.8025 35.2748 14.8025L32.6777 14.8025V19.9819L29.949 19.9819V6.08789L35.2748 6.08789ZM34.9173 12.627C36.4308 12.627 37.1882 11.9029 37.1882 10.4515C37.1882 8.9938 36.4308 8.26336 34.9173 8.26336L32.6777 8.26336V12.627L34.9173 12.627Z" fill="#B7B7B7"/>
    <path d="M42.2514 19.9818V9.50283L44.7857 9.50283V11.0585L44.9865 11.0965C45.2374 10.5147 45.5651 10.0894 45.9714 9.81903C46.3807 9.54551 46.8778 9.40796 47.4644 9.40796C48.054 9.40796 48.5026 9.50916 48.8132 9.71151L48.3677 11.9819L48.1671 12.0198C47.9991 11.9487 47.836 11.8981 47.6777 11.868C47.5223 11.8348 47.3328 11.8174 47.1068 11.8174C46.3746 11.8174 45.8162 12.0767 45.432 12.5953C45.0509 13.1107 44.8611 13.9392 44.8611 15.0806V19.9818L42.2514 19.9818Z" fill="#B7B7B7"/>
    <path d="M54.9444 20.184C53.9282 20.184 53.0344 19.9738 52.266 19.5516C51.496 19.1311 50.8984 18.5129 50.4719 17.6987C50.0484 16.886 49.8381 15.901 49.8381 14.7453C49.8381 13.5943 50.0484 12.611 50.4719 11.792C50.8984 10.9746 51.496 10.3548 52.266 9.93271C53.0344 9.51216 53.9282 9.30029 54.9444 9.30029C55.9608 9.30029 56.8531 9.51216 57.6231 9.93271C58.3963 10.3548 58.997 10.9746 59.4235 11.792C59.8501 12.611 60.0632 13.5943 60.0632 14.7453C60.0632 15.901 59.8501 16.886 59.4235 17.6987C58.997 18.5129 58.3963 19.1311 57.6231 19.5516C56.8531 19.9738 55.9608 20.184 54.9444 20.184ZM54.9444 17.9453C56.5582 17.9453 57.3658 16.8797 57.3658 14.7453C57.3658 13.637 57.1588 12.826 56.7449 12.3106C56.3309 11.792 55.7302 11.5327 54.9444 11.5327C53.3291 11.5327 52.5232 12.6046 52.5232 14.7453C52.5232 16.8797 53.3291 17.9453 54.9444 17.9453Z" fill="#B7B7B7"/>
    <path d="M63.9146 19.9819L61.1669 19.9819L64.1341 14.5495L61.3239 9.50293L64.1154 9.50293L65.9157 12.9496L66.129 12.9496L67.9418 9.50293L70.6456 9.50293L67.9231 14.5495L70.8088 19.9819L68.0234 19.9819L66.0662 16.1559L65.8467 16.1559L63.9146 19.9819Z" fill="#B7B7B7"/>
    <path d="M73.2851 24.4278C72.8366 24.4278 72.4318 24.3913 72.0681 24.3202C71.7073 24.2522 71.4157 24.1622 71.1899 24.0482L71.6039 21.9171L71.7732 21.8602C71.9317 21.944 72.1261 22.012 72.3567 22.0625C72.5903 22.1131 72.8304 22.1384 73.0781 22.1384C73.4952 22.1384 73.845 22.0815 74.1256 21.9677C74.4049 21.857 74.6417 21.6736 74.8345 21.4175C75.0305 21.1645 75.2046 20.8104 75.3552 20.355L71.2087 9.50293L73.9438 9.50293L76.5219 16.7883L76.7479 16.7883L79.2696 9.50293L81.9231 9.50293L77.7515 20.6396C77.416 21.5376 77.049 22.2602 76.6473 22.8089C76.249 23.3558 75.7786 23.7638 75.2359 24.0293C74.6919 24.2949 74.041 24.4278 73.2851 24.4278Z" fill="#B7B7B7"/>
    <path d="M86.6571 6.08789V17.6799L92.8485 17.6799V19.9819L83.9282 19.9819V6.08789L86.6571 6.08789Z" fill="#B7B7B7"/>
    <path d="M96.0966 8.24411C95.6277 8.24411 95.245 8.10183 94.9486 7.81407C94.6508 7.52791 94.5033 7.15638 94.5033 6.70105C94.5033 6.25045 94.6508 5.88207 94.9486 5.59434C95.245 5.30343 95.6277 5.15796 96.0966 5.15796C96.4102 5.15796 96.6895 5.22596 96.9373 5.36034C97.1835 5.49156 97.3733 5.67338 97.508 5.9042C97.6413 6.13663 97.7088 6.40223 97.7088 6.70105C97.7088 6.99669 97.6413 7.26229 97.508 7.49787C97.3733 7.73029 97.1835 7.91367 96.9373 8.04807C96.6895 8.17929 96.4102 8.24411 96.0966 8.24411ZM94.798 19.9816V9.5026L97.4077 9.5026V19.9816L94.798 19.9816Z" fill="#B7B7B7"/>
    <path d="M100.397 19.9816V9.50267L102.906 9.50267V11.0394L103.1 11.09C103.748 9.89792 104.797 9.30029 106.25 9.30029C107.449 9.30029 108.329 9.63231 108.891 10.2932C109.455 10.9509 109.737 11.9106 109.737 13.1706V19.9816L107.128 19.9816V13.4932C107.128 12.7975 106.987 12.2963 106.707 11.988C106.432 11.6813 105.989 11.5264 105.384 11.5264C104.634 11.5264 104.051 11.7714 103.634 12.26C103.215 12.7453 103.006 13.5106 103.006 14.5556V19.9816L100.397 19.9816Z" fill="#B7B7B7"/>
    <path d="M112.571 19.9818V5.29102L115.181 5.29102V13.4427L115.438 13.4427L118.443 9.50284L121.09 9.50284V9.71786L117.559 14.3218L121.485 19.7415V19.9818L118.731 19.9818L115.438 15.5613L115.181 15.5613V19.9818L112.571 19.9818Z" fill="#B7B7B7"/>
  </g>
  <defs>
    <clipPath id="clip0_4197_90096">
      <rect width="123" height="24" fill="white" transform="translate(0.5 0.5)"/>
    </clipPath>
  </defs>
</svg>