<svg width="65" height="27" viewBox="0 0 65 27" fill="none" xmlns="http://www.w3.org/2000/svg">
<path fill-rule="evenodd" clip-rule="evenodd" d="M23.1544 10.508L23.1502 10.5997L23.1459 10.6892L23.133 10.781L23.1158 10.8727L23.0943 10.96L23.075 11.043L23.0471 11.1303L23.0148 11.2067L22.9783 11.2897L22.9418 11.3661L22.8988 11.4426L22.8516 11.5146L22.8022 11.5845L22.7485 11.6544L22.6948 11.7177L22.6347 11.7788L22.5724 11.8421L22.5122 11.8945L22.4413 11.9491L22.3726 11.9993L22.3039 12.043L22.2287 12.0889L22.1514 12.126L22.0741 12.1631L21.9924 12.198L21.9108 12.2264L21.8249 12.2461L21.739 12.2657L21.6488 12.2832L21.5586 12.2941L21.4683 12.2985L21.3781 12.3029H21.3352L21.2879 12.2985L21.2471 12.2898L21.2063 12.281L21.1655 12.2723L21.1247 12.2592L21.0839 12.2461L21.0474 12.2286L20.97 12.1915L20.8991 12.1456L20.8347 12.0954L20.7746 12.0387L20.7209 11.9753L20.6715 11.9098L20.6285 11.8356L20.5898 11.7613L20.5619 11.6827L20.5404 11.6041L20.534 11.5605L20.5297 11.5212L20.5254 11.4753V11.3552L20.534 11.2897L20.5469 11.2264L20.5641 11.1718L20.5813 11.1238L20.6027 11.0801L20.6221 11.0408L20.6414 11.008L20.6844 10.936L20.723 10.8661L20.7402 10.829L20.7488 10.7853L20.7574 10.7373L20.7617 10.6849L20.7574 10.6478L20.7531 10.6041L20.7402 10.5692L20.7273 10.532L20.7101 10.4949L20.6887 10.46L20.6672 10.4272L20.6414 10.3988L20.6113 10.3748L20.5791 10.3486L20.5469 10.329L20.5147 10.3115L20.4782 10.2984L20.4352 10.2853L20.4008 10.2809L20.3579 10.2766L20.2891 10.2809L20.2247 10.2897L20.1624 10.3071L20.1023 10.329L20.0443 10.3574L19.9906 10.3901L19.939 10.4294L19.8939 10.4687L19.851 10.5189L19.8166 10.5692L19.7822 10.6216L19.7543 10.6805L19.7328 10.7416L19.7178 10.805L19.7092 10.8705L19.7049 10.9403V15.5847L19.7092 15.6174L19.7178 15.6436L19.7307 15.6655L19.7479 15.6873L19.7672 15.7069L19.7908 15.7244L19.8166 15.7331L19.8381 15.7419L20.2891 15.8773L20.3149 15.886L20.3428 15.8991L20.3686 15.9122L20.3901 15.934L20.4116 15.9559L20.4309 15.9733L20.4395 16.0039L20.4438 16.0323V16.4384L20.4309 16.4668L20.418 16.493L20.4008 16.5127L20.3751 16.5345L20.3514 16.5476L20.3235 16.5607H17.3465L17.3164 16.5476L17.2928 16.5345L17.267 16.5127L17.2499 16.4908L17.2327 16.4668L17.2241 16.4384L17.2198 16.4057V14.3095L17.0565 14.4798L16.8761 14.6632L16.6807 14.8597L16.4723 15.065L16.2511 15.2659L16.0255 15.4733L15.7936 15.6807L15.5594 15.8751L15.4413 15.9711L15.3232 16.0607L15.205 16.1524L15.0891 16.2353L14.9752 16.3183L14.8592 16.3926L14.7454 16.4624L14.6358 16.5279L14.5285 16.5869L14.4211 16.6415L14.3201 16.6852L14.2213 16.7245L14.1225 16.7528L14.0301 16.7769L13.9442 16.79L13.8583 16.7943L13.7724 16.79L13.6908 16.7812L13.6177 16.7681L13.5469 16.7485L13.4824 16.7245L13.4201 16.6983L13.3621 16.6655L13.3084 16.6306L13.2612 16.5913L13.2161 16.5498L13.1731 16.5083L13.1345 16.4646L13.0593 16.3685L12.9905 16.2703L12.9218 16.1698L12.8574 16.0738L12.823 16.0323L12.7865 15.9886L12.75 15.9449L12.7113 15.91L12.6727 15.8729L12.6254 15.8423L12.5824 15.8139L12.533 15.7877L12.4793 15.7681L12.4214 15.755L12.3612 15.7462L12.2968 15.7419L12.2388 15.7462L12.1851 15.755L12.1314 15.7681L12.082 15.7899L12.0347 15.8139L11.9896 15.8423L11.9445 15.8729L11.8973 15.91L11.7147 16.0738L11.4999 16.2703L11.4441 16.3183L11.3796 16.3685L11.3152 16.4144L11.24 16.4646L11.1627 16.5083L11.0811 16.552L10.9951 16.5913L10.9006 16.6306L10.7975 16.6655L10.688 16.7004L10.572 16.7245L10.4496 16.7507L10.3164 16.7703L10.1768 16.7834L10.0264 16.7921L9.86534 16.7965L9.68921 16.7921L9.51309 16.7747L9.34125 16.7485L9.17372 16.7114L9.00618 16.6677L8.84294 16.6109L8.68399 16.5498L8.52934 16.4799L8.37684 16.3969L8.22864 16.3096L8.08687 16.2157L7.94726 16.1065L7.81194 15.9973L7.68307 15.8751L7.55419 15.7506L7.43606 15.6196L7.32222 15.4777L7.21482 15.3292L7.11387 15.1807L7.01936 15.0235L6.92915 14.8576L6.84324 14.6872L6.77021 14.5126L6.69933 14.3379L6.63918 14.1545L6.58549 13.9645L6.53608 13.7724L6.49957 13.578L6.47165 13.3815L6.44587 13.1784L6.43299 12.971L6.42869 12.7636L6.43299 12.5561L6.44587 12.3487L6.47165 12.1478L6.49957 11.9513L6.53608 11.7548L6.58549 11.5626L6.63918 11.377L6.69933 11.1958L6.77021 11.0168L6.84324 10.8421L6.92915 10.674L7.01936 10.508L7.11387 10.3508L7.21482 10.198L7.32222 10.0538L7.43606 9.91192L7.55419 9.77654L7.68307 9.65208L7.81194 9.53199L7.94726 9.41626L8.08687 9.31145L8.22864 9.21319L8.37684 9.12585L8.5272 9.04288L8.68399 8.97301L8.84294 8.9075L9.00618 8.85292L9.17372 8.80925L9.34125 8.77431L9.51309 8.75029L9.68921 8.73282L9.86534 8.72409L10.0071 8.72846L10.1446 8.73719L10.2691 8.75029L10.3937 8.76339L10.5076 8.78304L10.6171 8.80488L10.7202 8.83326L10.8212 8.85728L10.9135 8.89004L11.0016 8.92497L11.0875 8.95772L11.167 8.99484L11.24 9.03196L11.313 9.07345L11.3775 9.11057L11.4441 9.15206L11.6653 9.3049L11.8457 9.44028L11.9273 9.49487L12.0004 9.53635L12.0369 9.55382L12.0755 9.56474L12.1078 9.56911L12.1443 9.57347H12.1851L12.2259 9.56474L12.2624 9.55382L12.2946 9.54072L12.329 9.52325L12.3569 9.49705L12.3805 9.47303L12.4063 9.44246L12.4278 9.41408L12.4471 9.37696L12.4643 9.33984L12.4815 9.29835L12.5094 9.21101L12.5309 9.11275L12.5395 9.08218L12.5567 9.0538L12.5739 9.02978L12.5932 9.00795L12.6168 8.99048L12.649 8.97738L12.6834 8.96864L12.7156 8.96428H15.1492L15.1771 8.96864L15.205 8.97738L15.2308 8.99048L15.2544 9.01013L15.2716 9.02978L15.2888 9.0538L15.2974 9.08218V9.51889L15.2845 9.5429L15.2673 9.56911L15.2459 9.58876L15.2222 9.60623L15.1965 9.62369L15.1728 9.63243L15.1492 9.64116L14.6938 9.77654L14.6702 9.78527L14.6444 9.79619L14.6208 9.81366L14.6015 9.83113L14.5843 9.85078L14.5714 9.8748L14.5628 9.901L14.5585 9.92938V14.0344L14.5628 14.0846L14.5714 14.1348L14.5843 14.1785L14.6036 14.2243L14.6251 14.268L14.653 14.3073L14.6852 14.3444L14.7175 14.3794L14.7561 14.4121L14.7969 14.4405L14.8399 14.4645L14.8872 14.4864L14.9301 14.5016L14.9795 14.5147L15.0289 14.5235H15.1277L15.1771 14.5147L15.2287 14.5016L15.2867 14.4842L15.3447 14.4645L15.4048 14.4405L15.4692 14.4121L15.5337 14.3794L15.6668 14.3029L15.8108 14.2222L15.9525 14.1217L16.1007 14.0191L16.2511 13.9099L16.4036 13.7942L16.5496 13.6741L16.6978 13.5562L16.9771 13.3182L17.2219 13.0998V10.1696L17.2176 10.1368L17.209 10.1084L17.2004 10.0822L17.1833 10.0582L17.1704 10.0342L17.1489 10.0167L17.1339 9.99489L17.1124 9.97742L17.0909 9.96432L17.0651 9.95122L17.0415 9.94249L17.0157 9.93812L16.9878 9.92938H16.9577L16.9298 9.92502L16.8997 9.92938L16.8718 9.93375L16.846 9.94249L16.8224 9.95559L16.7795 9.97742L16.7408 10.0124L16.6957 10.0407L16.6463 10.0713L16.6184 10.08L16.584 10.0888L16.5496 10.0975H16.4659L16.4294 10.0888L16.3928 10.08L16.3606 10.0669L16.3284 10.0495L16.3005 10.0276L16.2704 10.0058L16.2468 9.98397L16.2253 9.95559L16.2038 9.9272L16.1931 9.89663L16.1759 9.86825L16.1673 9.83549L16.1587 9.80492L16.1544 9.77217L16.1501 9.73942L16.1544 9.71103L16.1587 9.6761L16.1673 9.64116L16.1802 9.60186L16.1909 9.56692L16.2124 9.52762L16.2317 9.48613L16.2532 9.44465L16.2811 9.40316L16.3091 9.36386L16.3413 9.31582L16.3778 9.27652L16.4165 9.23285L16.4573 9.19354L16.5002 9.14987L16.5475 9.11057L16.5947 9.0669L16.6484 9.03196L16.7021 8.99484L16.7601 8.96209L16.816 8.92279L16.8783 8.8944L16.9384 8.86165L17.0093 8.83763L17.0737 8.81143L17.1446 8.78741L17.2176 8.76994L17.2907 8.75248L17.368 8.73501L17.4475 8.72627L17.5291 8.72191L17.6107 8.71754L17.7503 8.72191L17.8749 8.73064L17.9952 8.74811L18.1047 8.76994L18.2078 8.79833L18.3023 8.8289L18.3882 8.86165L18.4699 8.90314L18.5429 8.94462L18.6073 8.98829L18.6718 9.03415L18.7233 9.08437L18.777 9.13896L18.82 9.19136L18.8629 9.24158L18.9037 9.29835L19.0326 9.51015L19.1529 9.69357L19.1808 9.73287L19.213 9.7678L19.2474 9.80056L19.2796 9.82458L19.3204 9.84641L19.3612 9.8617L19.4064 9.87043L19.4558 9.8748L19.4987 9.87043L19.5417 9.8617L19.5825 9.84423L19.6233 9.82458L19.6598 9.80056L19.7006 9.7678L19.7371 9.73287L19.7736 9.69357L19.924 9.51015L20.0958 9.29835L20.1452 9.24158L20.1946 9.19136L20.2483 9.13896L20.3106 9.08437L20.3708 9.03415L20.4352 8.99048L20.5061 8.94462L20.5791 8.90095L20.6586 8.86165L20.7445 8.8289L20.8326 8.79833L20.9314 8.76994L21.0323 8.74811L21.1397 8.73064L21.2578 8.72191L21.3803 8.71754L21.4726 8.72191L21.5607 8.72627L21.6509 8.73937L21.7411 8.75684L21.827 8.77649L21.913 8.79833L21.9946 8.82671L22.0762 8.85728L22.1557 8.89222L22.233 8.93152L22.306 8.97519L22.3748 9.02105L22.4435 9.07127L22.5144 9.12149L22.5745 9.17826L22.639 9.23721L22.6991 9.29835L22.7528 9.36167L22.8043 9.42718L22.8537 9.49705L22.9031 9.57129L22.944 9.64553L22.9805 9.72195L23.017 9.80056L23.0492 9.88353L23.0793 9.96432L23.0986 10.0517L23.1201 10.139L23.1373 10.2263L23.1502 10.318L23.1544 10.4076V10.508ZM12.0798 11.5212L12.0755 11.4775L12.0712 11.4273L12.0584 11.3814L12.0476 11.3377L12.0304 11.2853L12.009 11.2417L11.9875 11.1936L11.9617 11.15L11.9338 11.1041L11.8994 11.0604L11.865 11.0211L11.8264 10.9775L11.7899 10.9382L11.7469 10.8967L11.7018 10.8596L11.6567 10.8268L11.6073 10.7897L11.5579 10.7569L11.5085 10.7242L11.4548 10.6936L11.4011 10.6652L11.3453 10.639L11.2873 10.615L11.2293 10.5954L11.1734 10.5735L11.1154 10.5561L11.0531 10.5386L10.9973 10.5255L10.935 10.5167L10.8749 10.508L10.8169 10.5036H10.645L10.5376 10.5124L10.4367 10.5298L10.3336 10.5473L10.2348 10.5713L10.1403 10.5997L10.0479 10.6347L9.9577 10.6718L9.87179 10.7133L9.79017 10.7613L9.70855 10.8115L9.63122 10.8705L9.55604 10.9272L9.48301 10.9928L9.41858 11.0626L9.35199 11.1347L9.29185 11.2133L9.23386 11.2919L9.18016 11.3749L9.12646 11.4644L9.0835 11.5561L9.0384 11.6478L8.99974 11.7461L8.96322 11.8465L8.9353 11.9557L8.90737 12.0561L8.8816 12.1697L8.86012 12.281L8.84938 12.3967L8.83649 12.5168L8.8279 12.6369V12.8815L8.83649 13.0016L8.84938 13.1217L8.86012 13.2374L8.8816 13.3488L8.90737 13.4601L8.9353 13.5693L8.96322 13.6719L8.99974 13.7745L9.0384 13.8706L9.08136 13.9645L9.12646 14.0606L9.18016 14.1479L9.23386 14.2309L9.29185 14.3117L9.35199 14.3925L9.41643 14.4667L9.48087 14.5322L9.55604 14.5977L9.63122 14.661L9.70855 14.7178L9.79017 14.768L9.87179 14.8183L9.9577 14.8619L10.0479 14.9012L10.1403 14.934L10.2348 14.9624L10.3336 14.9886L10.4367 15.006L10.5376 15.0235L10.645 15.0322H10.8169L10.8749 15.0279L10.935 15.0191L10.9973 15.0104L11.0531 14.9995L11.1154 14.982L11.1734 14.9645L11.2293 14.9427L11.2873 14.9209L11.3453 14.899L11.4011 14.8728L11.4548 14.8445L11.5085 14.8139L11.5579 14.7811L11.6073 14.7484L11.6567 14.7156L11.6997 14.6785L11.7448 14.6414L11.7899 14.5977L11.8264 14.5584L11.865 14.5147L11.8994 14.4754L11.9338 14.434L11.9617 14.3881L11.9853 14.3444L12.0111 14.2964L12.0304 14.2527L12.0476 14.2069L12.0584 14.1567L12.0712 14.113L12.0755 14.0606L12.0798 14.0169V11.5212ZM23.9234 14.0278L23.9277 14.2069L23.9384 14.3816L23.9599 14.5453L23.99 14.7025L24.0222 14.851L24.0652 14.9929L24.1167 15.1283L24.1683 15.2571L24.2306 15.3772L24.295 15.4864L24.3659 15.5956L24.4432 15.696L24.5248 15.7899L24.6064 15.8773L24.6966 15.9602L24.7869 16.0345L24.8814 16.1043L24.978 16.1677L25.0768 16.2244L25.1799 16.279L25.2809 16.3292L25.384 16.3707L25.4871 16.4122L25.5945 16.445L25.6954 16.4734L25.8028 16.4974L25.9038 16.5192L26.0047 16.5367L26.1035 16.5498L26.2066 16.5585L26.3011 16.5629H31.5979L31.7031 16.5541L31.8105 16.541L31.9179 16.5236L32.0189 16.5039L32.1263 16.4755L32.2272 16.4471L32.326 16.41L32.4227 16.3664L32.5215 16.3271L32.616 16.2768L32.7062 16.2222L32.7943 16.1655L32.8802 16.1022L32.9661 16.0367L33.0434 15.9668L33.1229 15.8925L33.1959 15.8139L33.2668 15.7353L33.3312 15.648L33.3914 15.5563L33.4494 15.4668L33.5031 15.3663L33.5525 15.2681L33.5933 15.1632L33.6298 15.0541L33.662 14.9449L33.6899 14.8292L33.7114 14.7134L33.7265 14.5934L33.735 14.4689L33.7393 14.3401L33.7308 14.1501L33.7028 13.9754L33.662 13.8095L33.604 13.661L33.531 13.5169L33.4494 13.3881L33.3506 13.2636L33.2432 13.1479L33.1293 13.0452L33.0069 12.9448L32.878 12.8553L32.7363 12.7679L32.5988 12.685L32.4506 12.6107L32.3045 12.5365L32.1563 12.4644L31.8621 12.3378L31.5764 12.2068L31.4411 12.1478L31.3101 12.0823L31.1833 12.0168L31.0695 11.9469L30.9621 11.8814L30.8676 11.8072L30.7817 11.7286L30.7086 11.6456L30.6507 11.5583L30.6098 11.4644L30.5819 11.3639L30.5733 11.2548L30.5776 11.2111V11.1674L30.5862 11.1259L30.5948 11.0888L30.6077 11.0517L30.6249 11.0146L30.6421 10.9818L30.6592 10.9491L30.6807 10.9185L30.7043 10.8901L30.7301 10.8617L30.758 10.8355L30.786 10.8137L30.816 10.7875L30.8483 10.7657L30.8848 10.7438L30.9578 10.7111L31.0394 10.6783L31.1253 10.6543L31.2156 10.6325L31.3101 10.6194L31.4132 10.6085L31.5141 10.6041L31.6215 10.5997L31.7074 10.6041L31.7933 10.6085L31.8793 10.6194L31.9738 10.6325L32.0618 10.6543L32.1563 10.674L32.2465 10.698L32.3411 10.7285L32.4313 10.7613L32.5193 10.7941L32.6052 10.8312L32.6912 10.8683L32.7749 10.912L32.848 10.9556L32.921 10.9993L32.9854 11.0473L33.0069 11.0604L33.0284 11.0735L33.0456 11.0779L33.067 11.0823L33.0842 11.0866L33.1014 11.0823L33.1229 11.0779L33.1336 11.0735L33.1637 11.0561L33.1873 11.0299L33.2088 11.0059L33.2195 10.9797L34.0014 9.17171L34.01 9.13896L34.0143 9.1062L34.01 9.07345L33.9971 9.03851L33.9842 9.02105L33.9756 9.00795L33.9584 8.99484L33.9455 8.98174L33.9262 8.97301L33.909 8.96428L33.8875 8.95991H30.206L30.1137 8.96428L30.0235 8.96864L29.929 8.98174L29.8387 9.00358L29.7528 9.02541L29.6626 9.04725L29.5767 9.08218L29.4908 9.11494L29.4092 9.15206L29.3275 9.19791L29.2502 9.24158L29.1729 9.29398L29.0999 9.34639L29.029 9.40534L28.9602 9.46867L28.8958 9.53417L28.8314 9.59968L28.7669 9.66955L28.7154 9.74597L28.6574 9.82021L28.608 9.90318L28.565 9.98179L28.5178 10.0691L28.4813 10.1499L28.4447 10.2416L28.4168 10.3333L28.3868 10.4229L28.3674 10.5189L28.3502 10.615L28.3374 10.7089L28.3288 10.8093L28.3245 10.912L28.3331 11.1019L28.3588 11.2853L28.3953 11.4491L28.4447 11.6019L28.5049 11.7439L28.5801 11.8749L28.666 11.9993L28.7562 12.1129L28.8571 12.2155L28.9645 12.3116L29.0784 12.4011L29.1987 12.4841L29.3211 12.5627L29.4435 12.6369L29.5724 12.7068L29.7013 12.7723L29.959 12.9033L30.2039 13.0321L30.322 13.0977L30.4359 13.1632L30.5433 13.233L30.6442 13.3095L30.7387 13.3859L30.8203 13.4688L30.8955 13.5562L30.9557 13.6566L31.0051 13.7593L31.0416 13.8706L31.0673 13.9907L31.0759 14.1195V14.1741L31.0716 14.2222L31.063 14.2767L31.0545 14.3248L31.0416 14.375L31.0287 14.4252L31.0115 14.4754L30.9943 14.5191L30.9728 14.5672L30.9471 14.6108L30.9234 14.6567L30.8977 14.7003L30.8697 14.7396L30.8375 14.7768L30.8053 14.8139L30.7709 14.8532L30.7366 14.8881L30.6979 14.9231L30.6592 14.9514L30.6163 14.9798L30.5755 15.0082L30.5325 15.0344L30.4874 15.0584L30.4359 15.0803L30.3886 15.1021L30.3392 15.1174L30.2855 15.1305L30.2361 15.1436L30.1803 15.1523L30.1266 15.1611L30.0686 15.1654H29.901L29.7936 15.1567L29.6884 15.1458L29.5896 15.1327L29.4908 15.1108L29.4027 15.089L29.3168 15.0628L29.2309 15.0344L29.1493 14.9995L29.0741 14.9624L29.0011 14.9252L28.9323 14.8838L28.8679 14.8401L28.8013 14.7921L28.7433 14.7484L28.6853 14.6982L28.6381 14.6479L28.5887 14.5955L28.5436 14.5453L28.4984 14.4907L28.4619 14.4383L28.4254 14.3837L28.3911 14.3291L28.3631 14.2746L28.3395 14.2222L28.3137 14.1676L28.2944 14.1152L28.2751 14.0649L28.2622 14.0147L28.2493 13.9645L28.2407 13.9165L28.2321 13.8706L28.2278 13.8531L28.2235 13.8357L28.2149 13.8226L28.2063 13.8051L28.1827 13.7789L28.1526 13.7593L28.1204 13.7462L28.0882 13.7374H28.056L28.0216 13.7418L27.519 13.9449L27.5018 13.9536L27.4846 13.9667L27.4717 13.9798L27.4589 13.9929L27.4417 14.0256L27.4288 14.0584L27.4245 14.0933L27.4288 14.1283L27.4374 14.1588L27.4546 14.1872L27.4846 14.2287L27.5126 14.2702L27.5362 14.3117L27.5577 14.3554L27.5684 14.4034L27.5813 14.4558L27.5899 14.5104V14.6305L27.577 14.6916L27.5641 14.7506L27.5448 14.803L27.5211 14.8576L27.4911 14.9078L27.4589 14.9514L27.418 14.9995L27.3772 15.0344L27.3343 15.0737L27.2849 15.1021L27.2312 15.1305L27.1732 15.1523L27.1152 15.1632L27.0551 15.1763H26.9262L26.866 15.1632L26.8059 15.1458L26.7522 15.1239L26.6985 15.0956L26.6491 15.0672L26.6061 15.0301L26.5632 14.9864L26.5267 14.9427L26.4944 14.899L26.4665 14.8466L26.4408 14.7942L26.4193 14.7396L26.4085 14.6829L26.3999 14.6283L26.3956 14.5693V3.92693L26.3913 3.89854L26.3828 3.86797L26.3699 3.83959L26.3505 3.81775L26.3291 3.79592L26.3011 3.785L26.2775 3.77627L26.2431 3.7719H23.3284L23.2984 3.77627L23.2704 3.785L23.2425 3.7981L23.221 3.81994L23.1996 3.83959L23.1888 3.86797L23.1802 3.89854L23.1759 3.92693V4.29812L23.1802 4.32869L23.1931 4.35708L23.2103 4.38328L23.2296 4.40075L23.2533 4.4204L23.2769 4.4335L23.3027 4.4466L23.3263 4.45534L23.7816 4.59071L23.8053 4.59945L23.8289 4.61036L23.8504 4.62347L23.8719 4.64093L23.8869 4.66277L23.9041 4.68679L23.9127 4.71299L23.917 4.74137L23.9234 14.0278ZM64.9978 9.11494V9.49268L64.9936 9.52107L64.985 9.54727L64.9678 9.57129L64.9463 9.59312L64.9227 9.60841L64.8969 9.62588L64.8733 9.63461L64.8432 9.64335L64.39 9.77872L64.3685 9.78746L64.347 9.79837L64.3213 9.81584L64.2998 9.83331L64.2847 9.85515L64.2719 9.87916L64.2633 9.90318L64.259 9.93375V17.7332L64.2547 17.9123L64.2418 18.087L64.216 18.2551L64.1881 18.4254L64.1473 18.5914L64.0979 18.7551L64.0442 18.9123L63.9797 19.0695L63.911 19.2202L63.8337 19.3687L63.7499 19.5128L63.6619 19.6504L63.563 19.7857L63.4557 19.9167L63.3483 20.039L63.2301 20.1591L63.112 20.2683L62.9853 20.3775L62.8564 20.4779L62.7189 20.5762L62.5815 20.6635L62.4332 20.7465L62.2872 20.8207L62.1368 20.8906L61.98 20.9495L61.8189 21.0019L61.6557 21.0478L61.4882 21.0915L61.3206 21.1177L61.1531 21.1395L60.9813 21.1504L60.8073 21.1548H60.687L60.5689 21.1504L60.4529 21.1417L60.3347 21.1286L60.2209 21.1111L60.1114 21.0936L59.9954 21.0696L59.8858 21.0434L59.7741 21.015L59.6667 20.9867L59.5615 20.9539L59.4605 20.9102L59.3574 20.8753L59.2543 20.8294L59.1577 20.7836L59.0589 20.7334L58.9644 20.681L58.872 20.6264L58.7797 20.5674L58.6937 20.5063L58.6078 20.4451L58.5219 20.3796L58.4424 20.3076L58.363 20.2377L58.2899 20.1635L58.2169 20.0892L58.146 20.0106L58.0773 19.9277L58.015 19.8447L57.9549 19.7573L57.8926 19.67L57.841 19.5783L57.7615 19.7115L57.6713 19.8556L57.5747 20.0041L57.463 20.1635L57.3406 20.3294L57.2031 20.4976L57.0549 20.6722L56.8916 20.8469L56.7112 21.0281L56.5179 21.205L56.3117 21.3884L56.0862 21.5697L55.8392 21.7509L55.5814 21.9343L55.3022 22.1112L55.0058 22.2858L54.69 22.4562L54.3593 22.6199L54.0049 22.7815L53.6268 22.9343L53.2316 23.0806L52.8128 23.216L52.3724 23.3448L51.9064 23.4606L51.4188 23.5697L50.9076 23.668L50.3706 23.751L49.8078 23.8208L49.2215 23.8733L48.6093 23.9169L47.9671 23.9388L47.3012 23.9497L46.9146 23.9453L46.5194 23.9278L46.107 23.8995L45.6817 23.8667L45.2392 23.8208L44.7925 23.7663L44.335 23.7029L43.8646 23.6374L43.3899 23.5632L42.9109 23.4846L42.4255 23.4016L41.9336 23.3143L40.9456 23.1374L39.9511 22.9518L38.9631 22.7597L37.9922 22.5828L37.5132 22.4955L37.0407 22.4125L36.581 22.3339L36.1257 22.2596L35.6811 22.1941L35.2515 22.133L34.8283 22.0784L34.4245 22.0347L34.0315 21.9998L33.6556 21.9692L33.2947 21.9518L32.9575 21.9474L32.5064 21.9518L32.064 21.9649L31.6301 21.9823L31.2091 22.0129L30.7924 22.05L30.3886 22.0937L29.9869 22.1483L29.5939 22.2116L29.2094 22.2815L28.8335 22.3601L28.4598 22.4518L28.0946 22.55L27.7338 22.6592L27.3815 22.7728L27.0293 22.9038L26.6856 23.0392L26.3462 23.1833L26.0112 23.3405L25.6804 23.5064L25.3475 23.6833L25.0253 23.8754L24.7031 24.0698L24.3831 24.2794L24.0652 24.4977L23.7494 24.7314L23.4337 24.9716L23.1201 25.2248L22.8086 25.4869L22.4972 25.7664L22.1836 26.0502L21.8721 26.3493L21.5607 26.6638L21.5328 26.6878L21.5049 26.7096L21.4791 26.7271L21.4512 26.7358L21.4232 26.7402L21.3889 26.7358L21.3567 26.7227L21.3201 26.7053L15.1084 23.2772L15.0826 23.2553L15.059 23.2291L15.0418 23.1964L15.0332 23.1636L15.0289 23.1461V23.1112L15.0332 23.0937L15.0418 23.0763L15.0504 23.0588L15.0633 23.0457L15.0762 23.0282L15.4692 22.7051L15.8687 22.3907L16.2768 22.085L16.6957 21.7858L17.1253 21.502L17.5592 21.2268L17.9995 20.9626L18.4462 20.705L18.8994 20.4626L19.3569 20.229L19.8209 20.0041L20.287 19.7923L20.7531 19.5848L21.2235 19.3949L21.696 19.2093L22.1686 19.0346L22.6411 18.873L23.1179 18.7202L23.5862 18.5783L24.0609 18.4472L24.527 18.3271L24.9952 18.2158L25.457 18.1153L25.9145 18.0236L26.3656 17.945L26.8102 17.8795L27.2527 17.8162L27.6844 17.7725L28.1097 17.7354L28.5285 17.7092L28.9366 17.6917L29.3383 17.683L30.1029 17.6961L30.8504 17.7332L31.5871 17.7878L32.311 17.8621L33.0219 17.9581L33.7265 18.0673L34.4138 18.1896L35.0968 18.3293L35.7627 18.4778L36.4264 18.6394L37.0793 18.8097L37.728 18.9866L38.3638 19.1743L38.9996 19.3599L39.6225 19.5565L40.2454 19.7442L41.4761 20.1285L42.6961 20.5019L43.3061 20.681L43.9118 20.8491L44.5154 21.0107L45.1211 21.1635L45.7268 21.3011L46.3368 21.4255L46.9447 21.5347L47.559 21.6264L48.1733 21.7072L48.7962 21.7596L49.4191 21.7924L50.0506 21.8055L50.5704 21.7967L51.073 21.7727L51.5455 21.7356L52.0009 21.681L52.4347 21.6155L52.8428 21.5325L53.2316 21.4408L53.601 21.3426L53.9512 21.2312L54.2798 21.1111L54.5891 20.9801L54.8812 20.8425L55.154 20.7006L55.4074 20.5521L55.6437 20.3993L55.8628 20.2464L56.0668 20.0849L56.2559 19.9233L56.4277 19.7617L56.5823 19.6001L56.722 19.4386L56.8465 19.277L56.9582 19.1219L57.057 18.9691L57.143 18.8184L57.216 18.6743L57.274 18.5324L57.3234 18.4014L57.3599 18.2769L57.3878 18.1612L57.4007 18.052L57.405 17.9581L57.4093 17.9254L57.4222 17.8904L57.4394 17.8686L57.4587 17.8468L57.4802 17.8271L57.5081 17.814L57.5317 17.8053L57.5575 17.8009H58.1288L58.1546 17.8053L58.1782 17.814L58.2083 17.8271L58.2276 17.8446L58.2491 17.8664L58.2663 17.8904L58.2792 17.9254L58.2835 17.9581V18.0477L58.2921 18.135L58.305 18.2223L58.3179 18.3097L58.3372 18.3927L58.3608 18.4756L58.3887 18.5542L58.4231 18.6328L58.4553 18.7071L58.4961 18.7813L58.5369 18.8512L58.5799 18.9167L58.6315 18.9844L58.6851 19.0499L58.741 19.1132L58.799 19.17L58.8591 19.2246L58.9257 19.277L58.9902 19.3272L59.061 19.373L59.1341 19.4167L59.2092 19.456L59.2866 19.4931L59.3639 19.5259L59.4455 19.5565L59.5271 19.5783L59.613 19.6045L59.699 19.622L59.7849 19.6394L59.8751 19.6482L59.9653 19.6569H60.15L60.2381 19.6482L60.3283 19.6351L60.4142 19.6176L60.5001 19.6001L60.586 19.5761L60.6634 19.5455L60.745 19.5172L60.8245 19.48L60.8975 19.4429L60.9662 19.3992L61.0414 19.3512L61.1058 19.3032L61.1703 19.2486L61.2347 19.1896L61.2906 19.1329L61.3464 19.0717L61.4001 19.0062L61.4495 18.9342L61.4989 18.8643L61.5419 18.7901L61.5848 18.7136L61.6213 18.6328L61.6536 18.5542L61.6836 18.4669L61.7051 18.3839L61.7309 18.2922L61.7481 18.2027L61.7652 18.111L61.7781 18.0149L61.7824 17.921L61.7867 17.8249V16.3314L61.7824 16.2987V16.2681L61.7781 16.2441L61.7695 16.2157L61.761 16.1939L61.7481 16.172L61.7352 16.1502L61.718 16.1327L61.7008 16.1153L61.6815 16.1022L61.66 16.0891L61.6364 16.076L61.6127 16.0672L61.5827 16.0629L61.5548 16.0585H61.4989L61.4731 16.0672L61.4495 16.076L61.4237 16.0891L61.37 16.1262L61.3099 16.172L61.2455 16.2266L61.1703 16.2878L61.0887 16.3533L60.9899 16.4188L60.9362 16.4581L60.8803 16.4908L60.818 16.5236L60.7536 16.5563L60.6827 16.5869L60.6097 16.6153L60.5323 16.6437L60.4464 16.6721L60.3605 16.6983L60.2617 16.7179L60.1629 16.7397L60.0577 16.7572L59.946 16.7703L59.8278 16.779L59.7011 16.7878H59.5722L59.394 16.7834L59.22 16.7659L59.0481 16.7397L58.8806 16.7026L58.7131 16.6611L58.5477 16.6044L58.3887 16.541L58.2341 16.4712L58.0837 16.3882L57.9334 16.3009L57.7916 16.207L57.652 16.0978L57.5188 15.9886L57.3878 15.8663L57.2654 15.7441L57.1408 15.613L57.027 15.4711L56.9196 15.3226L56.8186 15.172L56.7241 15.0148L56.6339 14.8488L56.548 14.6807L56.4749 14.506L56.4062 14.3291L56.3418 14.1457L56.2902 13.9558L56.2408 13.7658L56.2043 13.5693L56.1764 13.3728L56.1528 13.1697L56.1399 12.9623L56.1356 12.7548L56.1399 12.5496L56.1528 12.3422L56.1764 12.1391L56.2043 11.9448L56.2408 11.7461L56.2902 11.5561L56.3439 11.3705L56.4062 11.1871L56.4749 11.0102L56.548 10.8355L56.6339 10.6652L56.7241 10.5015L56.8186 10.3443L56.9217 10.1914L57.027 10.0451L57.1408 9.90318L57.2654 9.7678L57.3878 9.64335L57.5167 9.52325L57.652 9.40753L57.7916 9.3049L57.9355 9.20446L58.0816 9.11712L58.2319 9.03633L58.3887 8.96428L58.5477 8.89877L58.7131 8.84418L58.8806 8.80051L59.0481 8.76776L59.22 8.74156L59.394 8.72409L59.5701 8.71536L59.714 8.71972L59.8493 8.72846L59.976 8.74156L60.0985 8.75466L60.2145 8.77649L60.3219 8.79833L60.425 8.82453L60.5281 8.84855L60.6183 8.88349L60.7085 8.91624L60.7944 8.94899L60.8717 8.98611L60.9447 9.02323L61.0199 9.0669L61.0844 9.10184L61.1488 9.14551L61.37 9.29835L61.5505 9.43373L61.6321 9.48832L61.7051 9.52762L61.7438 9.54509L61.7803 9.55601L61.8125 9.56037L61.849 9.56474H61.892L61.9306 9.55601L61.9672 9.54509L61.9994 9.53199L62.0337 9.51452L62.0617 9.4905L62.0853 9.4643L62.1111 9.43591L62.1304 9.40753L62.1519 9.36822L62.1712 9.3311L62.1841 9.28962L62.212 9.20228L62.2335 9.10402L62.2442 9.07563L62.2571 9.04725L62.2743 9.02105L62.2958 9.00139L62.3194 8.98174L62.3495 8.96864L62.3817 8.95991L62.4182 8.95554H64.8475L64.8797 8.95991L64.9076 8.96864L64.9334 8.98174L64.957 9.00358L64.9742 9.02105L64.9871 9.04725L65 9.07563L64.9978 9.11494ZM61.7824 11.5233L61.7781 11.4797L61.7738 11.4295L61.761 11.3836L61.7481 11.3399L61.7309 11.2875L61.7116 11.2439L61.6879 11.1958L61.6621 11.1521L61.6342 11.1063L61.602 11.0626L61.5655 11.0233L61.5268 10.9797L61.4903 10.9403L61.4452 10.8989L61.4044 10.8617L61.355 10.829L61.312 10.7919L61.2583 10.7591L61.2089 10.7264L61.1552 10.6958L61.1015 10.6674L61.0457 10.6412L60.9877 10.6172L60.9297 10.5975L60.8717 10.5757L60.8159 10.5582L60.7536 10.5408L60.6977 10.5277L60.6354 10.5189L60.5753 10.5102L60.5109 10.5058H60.3455L60.2381 10.5146L60.135 10.532L60.034 10.5495L59.9352 10.5735L59.8407 10.6019L59.7484 10.6368L59.6581 10.674L59.5722 10.7154L59.4906 10.7635L59.409 10.8137L59.3317 10.8727L59.2565 10.9294L59.1835 10.9949L59.119 11.0648L59.0524 11.1369L58.9923 11.2155L58.9343 11.2941L58.8806 11.377L58.8312 11.4666L58.7818 11.5583L58.741 11.65L58.7002 11.7482L58.6637 11.8487L58.6357 11.9579L58.6057 12.0583L58.582 12.1718L58.5649 12.2832L58.5477 12.3989L58.5369 12.519L58.5326 12.6391L58.5284 12.7636L58.5326 12.8837L58.5369 13.0038L58.5477 13.1239L58.5649 13.2396L58.582 13.3509L58.6057 13.4623L58.6357 13.5715L58.6637 13.6741L58.7002 13.7767L58.7431 13.8728L58.7818 13.9667L58.8312 14.0628L58.8806 14.1501L58.9343 14.2331L58.9923 14.3139L59.0524 14.3947L59.1169 14.4689L59.1835 14.5344L59.2565 14.5999L59.3317 14.6632L59.409 14.72L59.4906 14.7702L59.5722 14.8204L59.6581 14.8641L59.7484 14.9034L59.8407 14.9362L59.9352 14.9645L60.034 14.9908L60.135 15.0082L60.2381 15.0257L60.3455 15.0344H60.513L60.5753 15.0301L60.6354 15.0213L60.6977 15.0126L60.7536 15.0017L60.8159 14.9842L60.8717 14.9667L60.9297 14.9449L60.9877 14.9231L61.0457 14.9012L61.1015 14.875L61.1552 14.8466L61.2089 14.8161L61.2583 14.7833L61.3099 14.7506L61.355 14.7178L61.4044 14.6807L61.4452 14.6436L61.4903 14.5999L61.5268 14.5606L61.5655 14.5169L61.602 14.4776L61.6342 14.4361L61.6621 14.3903L61.6879 14.3466L61.7116 14.2986L61.7309 14.2549L61.7481 14.2091L61.761 14.1588L61.7738 14.1152L61.7781 14.0628L61.7824 14.0191V11.5233ZM56.8036 8.56251L56.7993 8.70225L56.7907 8.842L56.78 8.97956L56.7585 9.11057L56.7348 9.23503L56.7069 9.35949L56.6726 9.47522L56.636 9.59094L56.5995 9.70012L56.5566 9.80274L56.5072 9.90537L56.4535 10.0014L56.3998 10.0931L56.3418 10.1805L56.2816 10.2635L56.2172 10.3399L56.1506 10.4119L56.0862 10.4818L56.0153 10.5429L55.9423 10.6063L55.8714 10.6587L55.7941 10.7089L55.721 10.7547L55.6416 10.7962L55.5685 10.8334L55.4912 10.8617L55.4139 10.8879L55.3366 10.912L55.2592 10.9294L55.1798 10.9425L55.1024 10.9469L55.0294 10.9513H54.9435L54.8619 10.9425L54.7888 10.9338L54.718 10.9207L54.6535 10.9076L54.5955 10.8879L54.5375 10.8661L54.4881 10.8465L54.4409 10.8224L54.3958 10.7962L54.3528 10.7679L54.3163 10.7395L54.2476 10.6805L54.1831 10.6194L54.1208 10.5582L54.0628 10.4993L54.0027 10.4425L53.9404 10.3923L53.9039 10.3705L53.8674 10.353L53.8309 10.3355L53.7858 10.318L53.7428 10.3049L53.6956 10.2962L53.6419 10.2918L53.5839 10.2875L53.5194 10.2918L53.4507 10.3006L53.3863 10.318L53.3218 10.3399L53.2617 10.3683L53.1994 10.401L53.1478 10.4381L53.0984 10.4796L53.049 10.5298L53.0061 10.5779L52.9717 10.6325L52.9438 10.6892L52.918 10.7526L52.8987 10.8137L52.8858 10.8792L52.8815 10.9513V15.5934L52.8858 15.6283L52.8944 15.6524L52.9116 15.6764L52.9288 15.6982L52.9502 15.7157L52.9674 15.7331L52.9932 15.7419L53.0168 15.7506L53.4679 15.8882L53.4958 15.8969L53.5194 15.91L53.5452 15.9231L53.5688 15.9428L53.5882 15.9646L53.6053 15.9842L53.6182 16.0126L53.6225 16.041V16.4144L53.6182 16.4471L53.6096 16.4777L53.5925 16.5017L53.5753 16.5214L53.5516 16.5432L53.5259 16.5563L53.4979 16.5694H50.5209L50.4909 16.5563L50.4694 16.5432L50.4479 16.5214L50.4264 16.5017L50.4136 16.4777L50.4007 16.4471V11.0255L50.3964 10.9469L50.3878 10.8748L50.3706 10.8093L50.3513 10.7482L50.3276 10.6936L50.2976 10.6434L50.2632 10.5975L50.2245 10.5561L50.1816 10.5233L50.1343 10.4949L50.0849 10.4709L50.0334 10.4491L49.9754 10.4316L49.9174 10.4185L49.8615 10.4141L49.7993 10.4098L49.7391 10.4141L49.6725 10.4229L49.6081 10.4403L49.5372 10.46L49.4642 10.484L49.3912 10.5124L49.3117 10.5451L49.2301 10.5888L49.0711 10.6761L48.9036 10.77L48.736 10.8792L48.5728 10.9884L48.5642 11.1456L48.547 11.2984L48.5255 11.4469L48.4912 11.5932L48.4504 11.7373L48.4031 11.8793L48.3494 12.0146L48.285 12.1522L48.2141 12.281L48.1325 12.4077L48.0466 12.5321L47.9563 12.6478L47.8532 12.7658L47.7459 12.8749L47.6342 12.9797L47.5117 13.078L47.3829 13.1784L47.2497 13.2658L47.1101 13.3531L46.9619 13.4339L46.8115 13.5082L46.6504 13.5737L46.4829 13.6392L46.3153 13.6959L46.1371 13.7483L45.9566 13.792L45.7676 13.8313L45.5743 13.8619L45.3746 13.8837L45.1705 13.9055L44.9622 13.9165L44.7495 13.9208L44.7538 13.9536L44.7581 13.9907L44.771 14.0322L44.7839 14.0759L44.8032 14.1283L44.829 14.1807L44.8526 14.2353L44.8848 14.292L44.9214 14.351L44.9643 14.4121L45.003 14.4754L45.0524 14.5409L45.1061 14.6021L45.1641 14.6676L45.2242 14.7331L45.2886 14.7942L45.3595 14.8597L45.4283 14.9187L45.5077 14.9798L45.5894 15.0366L45.6753 15.0912L45.7633 15.1436L45.8578 15.1916L45.9566 15.2353L46.064 15.2812L46.1693 15.3183L46.281 15.3467L46.3948 15.3772L46.513 15.3991L46.6354 15.4165L46.7643 15.4296H47.0499L47.2003 15.4165L47.3442 15.3991L47.4838 15.3729L47.6213 15.3401L47.7501 15.303L47.8747 15.2593L47.9972 15.2026L48.1131 15.1458L48.227 15.0803L48.3344 15.0104L48.4353 14.9296L48.5341 14.8423L48.6243 14.7527L48.7146 14.6523L48.7962 14.5497L48.8155 14.5257L48.837 14.5038L48.8585 14.4864L48.8799 14.4689L48.9057 14.4514L48.9315 14.4383L48.9594 14.4296L48.983 14.4165L49.0088 14.4121L49.0367 14.4078H49.0861L49.1098 14.4121L49.1355 14.4165L49.1592 14.4252L49.185 14.434L49.2043 14.4471L49.2236 14.4602L49.2408 14.4798L49.258 14.4973L49.2752 14.5191L49.2881 14.5431L49.2966 14.5672L49.3052 14.5977L49.3095 14.6305V14.696L49.3052 14.7396L49.2966 14.779L49.2838 14.8226L49.2709 14.8663L49.2494 14.9165L49.2322 14.9645L49.2021 15.0191L49.1699 15.0759L49.1334 15.1392L49.0904 15.2047L49.0475 15.2746L48.9938 15.351L48.9358 15.4253L48.8799 15.4995L48.8112 15.5781L48.7403 15.6567L48.6673 15.7353L48.5857 15.8139L48.4998 15.8925L48.4053 15.9711L48.3108 16.0498L48.2077 16.124L48.1003 16.1982L47.9886 16.2703L47.8683 16.3402L47.7459 16.4057L47.617 16.469L47.4795 16.5258L47.342 16.5803L47.1938 16.6306L47.0435 16.6721L46.8824 16.7135L46.7192 16.7463L46.5516 16.7703L46.3755 16.7878L46.1972 16.8009L46.0082 16.8052L45.8321 16.8009L45.6559 16.7878L45.4798 16.7703L45.308 16.7419L45.1404 16.7092L44.9729 16.6677L44.8097 16.6218L44.6507 16.5672L44.4939 16.5061L44.3393 16.434L44.1889 16.3664L44.0407 16.2834L43.8968 16.196L43.7572 16.1043L43.624 16.0083L43.493 15.9056L43.3641 15.7965L43.2438 15.6829L43.1257 15.5628L43.014 15.4427L42.9066 15.3117L42.8057 15.1763L42.7069 15.041L42.6166 14.899L42.5307 14.7549L42.4534 14.6065L42.3804 14.4536L42.3095 14.2964L42.2537 14.1348L42.2 13.9689L42.1506 13.8029L42.1097 13.6326L41.9379 13.5758L41.7661 13.5147L41.5985 13.4492L41.4353 13.3728L41.2764 13.2942L41.1239 13.2156L40.9799 13.1326L40.8468 13.0496V14.5781L40.8382 14.6894L40.8253 14.7986L40.8081 14.9034L40.7866 15.0082L40.7609 15.1065L40.7329 15.2069L40.6964 15.3008L40.6599 15.3969L40.6148 15.4886L40.5697 15.5759L40.516 15.6633L40.4623 15.7441L40.4022 15.8227L40.3399 15.8969L40.2754 15.9668L40.2002 16.0388L40.1272 16.1043L40.0499 16.1633L39.9683 16.2201L39.8824 16.2747L39.7964 16.3249L39.7019 16.3685L39.6074 16.4122L39.5108 16.4471L39.4077 16.4777L39.3003 16.5061L39.195 16.5279L39.0855 16.5476L38.9695 16.5607L38.8514 16.5694H37.3629L37.2039 16.5607L37.0428 16.5432L36.8925 16.5214L36.7443 16.4974L36.6004 16.4668L36.4629 16.4297L36.3276 16.3882L36.1987 16.3402L36.0698 16.2899L35.9517 16.231L35.8378 16.1698L35.7219 16.1043L35.6145 16.0279L35.5178 15.9537L35.419 15.8707L35.3288 15.7899L35.2429 15.6982L35.1613 15.6021L35.0882 15.5039L35.0195 15.3991L34.9572 15.2899L34.8992 15.1807L34.8477 15.065L34.7983 14.9449L34.7617 14.8204L34.7231 14.696L34.6952 14.565L34.6758 14.4318L34.6586 14.2898L34.6501 14.1501L34.6458 14.006V4.74793L34.6415 4.71954L34.6329 4.69552L34.62 4.66932L34.6007 4.64748L34.5813 4.63002L34.5598 4.61691L34.5362 4.606L34.5104 4.59726L34.0594 4.46189L34.0336 4.45315L34.0078 4.44005L33.9799 4.42258L33.9584 4.40511L33.937 4.38328L33.9219 4.36144L33.909 4.33306L33.9047 4.30467V3.93348L33.909 3.90291L33.9176 3.87452L33.9348 3.84395L33.952 3.8243L33.9735 3.80247L34.0014 3.78937L34.0293 3.78063L34.0594 3.77627H36.9741L37.0063 3.78063L37.0364 3.78937L37.06 3.80247L37.0815 3.8243L37.103 3.84614L37.1137 3.87452L37.1223 3.90291L37.1266 3.93129V14.2942L37.1352 14.3597L37.1438 14.423L37.161 14.4842L37.1781 14.5431L37.1996 14.5999L37.2211 14.6545L37.2469 14.7047L37.2791 14.7527L37.3113 14.803L37.3457 14.8488L37.3822 14.8903L37.423 14.9318L37.4638 14.9689L37.5068 15.0017L37.554 15.0388L37.597 15.0672L37.6464 15.0977L37.6979 15.1261L37.7452 15.1523L37.7989 15.172L37.8526 15.1938L37.902 15.2135L37.9535 15.2309L38.0609 15.2593L38.1683 15.2768L38.2693 15.2877L38.3681 15.2921L38.4776 15.2877L38.585 15.279L38.6946 15.2659L38.802 15.244L38.8535 15.2288L38.9072 15.2178L38.9609 15.196L39.0103 15.1785L39.0597 15.1567L39.1091 15.1327L39.1564 15.1065L39.2015 15.0781L39.2466 15.0497L39.2895 15.017L39.3282 14.9776L39.3647 14.9405L39.4034 14.9034L39.4356 14.8597L39.4635 14.8139L39.4914 14.768L39.5215 14.7134L39.5408 14.6589L39.5623 14.6021L39.5795 14.5431L39.5924 14.4776L39.601 14.4121L39.6096 14.3422V12.2352L38.6022 11.626L38.5592 11.5932L38.5141 11.5605L38.4712 11.519L38.4347 11.4775L38.4218 11.4535L38.4089 11.4273L38.3982 11.3989L38.3896 11.3683L38.381 11.3399L38.3724 11.3072V11.2701L38.3681 11.2329V9.11494L38.3724 9.08437L38.381 9.05598L38.3917 9.02978L38.4132 9.01013L38.4347 8.99048L38.4604 8.97738L38.4905 8.96864L38.5184 8.96428H40.6986L40.7265 8.96864L40.7566 8.97738L40.7802 8.99048L40.8038 9.01231L40.821 9.02978L40.8382 9.05598L40.8468 9.08437V11.9972L40.9756 12.078L41.1088 12.1609L41.2527 12.2439L41.4031 12.3269L41.5534 12.4098L41.7145 12.4885L41.8692 12.5671L42.026 12.6326L42.0389 12.4317L42.0582 12.233L42.0861 12.0365L42.1226 11.8421L42.172 11.6522L42.23 11.4666L42.2945 11.2853L42.3696 11.1063L42.447 10.9316L42.5372 10.7635L42.6338 10.6019L42.7369 10.4447L42.8486 10.2918L42.9668 10.1412L43.0892 10.0014L43.2181 9.86606L43.3598 9.73505L43.5016 9.61278L43.6498 9.50142L43.8044 9.39006L43.9634 9.28962L44.1288 9.19573L44.3006 9.11275L44.4767 9.03196L44.6507 8.96428L44.8354 8.89877L45.0223 8.85073L45.2113 8.80706L45.4089 8.77213L45.6022 8.74811L45.8041 8.73501L46.0082 8.72627L46.1242 8.73064L46.2337 8.73501L46.3411 8.74374L46.4485 8.75684L46.5495 8.76994L46.6504 8.78741L46.7492 8.80925L46.8437 8.83326L46.9382 8.85947L47.0285 8.88785L47.1144 8.92061L47.2003 8.95336L47.2819 8.98611L47.3592 9.02978L47.4366 9.06472L47.5096 9.11275L47.5848 9.15642L47.6535 9.20228L47.7179 9.2525L47.7845 9.30272L47.8468 9.35075L47.9069 9.40534L47.9649 9.4643L48.0186 9.52107L48.068 9.58002L48.1153 9.63679L48.1647 9.69793L48.2098 9.76125L48.2528 9.82239L48.2871 9.8879L48.3236 9.9534L48.3623 10.0211L48.4998 9.91192L48.648 9.80274L48.8026 9.69138L48.9637 9.57784L49.1313 9.47085L49.3031 9.36167L49.4749 9.26123L49.6532 9.16516L49.8336 9.07345L50.014 8.99048L50.1043 8.95336L50.1945 8.91624L50.2847 8.88349L50.3727 8.8551L50.463 8.82453L50.5532 8.80051L50.6391 8.77868L50.7293 8.76339L50.8152 8.75029L50.9011 8.73719L50.987 8.73282L51.073 8.72846L51.1632 8.73282L51.2491 8.74156L51.3264 8.75029L51.4037 8.76776L51.4746 8.78741L51.5391 8.80925L51.6013 8.83326L51.6572 8.86165L51.7109 8.89222L51.7603 8.92497L51.8097 8.95772L51.8527 8.99484L51.9364 9.06908L52.0095 9.14769L52.0739 9.22848L52.1405 9.30272L52.2028 9.37259L52.2629 9.43373L52.2951 9.4643L52.3295 9.48832L52.366 9.50797L52.3982 9.5298L52.439 9.54072L52.4755 9.55382L52.5207 9.56256H52.5937L52.6238 9.55819L52.6517 9.54945L52.6796 9.53635L52.7097 9.52325L52.7311 9.50578L52.7526 9.48613L52.7784 9.4643L52.7956 9.44028L52.8171 9.41408L52.8278 9.39006L52.8407 9.36167L52.8536 9.3311L52.8622 9.29835L52.8665 9.26997V9.23721L52.8622 9.16079L52.8493 9.09092L52.8321 9.02105L52.8149 8.95554L52.7956 8.88349L52.7784 8.81798L52.7655 8.74811L52.7612 8.67824L52.7655 8.6433V8.60618L52.7741 8.57343L52.7784 8.54067L52.7999 8.47517L52.8278 8.40966L52.86 8.34634L52.9008 8.28957L52.9438 8.23498L52.9996 8.1804L53.0512 8.13673L53.1135 8.09306L53.1758 8.05594L53.2445 8.02318L53.3132 7.99917L53.3841 7.9817L53.4571 7.9686L53.5345 7.96423H53.5989L53.6655 7.97296L53.7299 7.9817L53.7922 7.99917L53.8524 8.01663L53.9104 8.03628L53.9683 8.05812L54.0263 8.08651L54.1359 8.14546L54.2454 8.2066L54.3485 8.27647L54.4516 8.34853L54.5547 8.4184L54.6557 8.48827L54.7588 8.55378L54.8597 8.61273L54.9091 8.63675L54.9628 8.65858L55.0144 8.68042L55.0681 8.69789L55.1261 8.71099L55.1798 8.71972L55.2378 8.72846H55.3473L55.3967 8.71536L55.4483 8.70225L55.4998 8.6826L55.5514 8.65422L55.5943 8.62146L55.6459 8.58653L55.6867 8.54286L55.7275 8.497L55.764 8.44678L55.7962 8.39001L55.8263 8.33106L55.8499 8.26555L55.8671 8.20005L55.8757 8.12799L55.88 8.05375V8.01663L55.8757 7.97515L55.8714 7.93803L55.8585 7.89654L55.8392 7.81357L55.807 7.72623L55.764 7.6367L55.721 7.545L55.6673 7.45329L55.6072 7.36377L55.5449 7.27206L55.4762 7.18035L55.401 7.09083L55.328 7.00349L55.2506 6.92051L55.1733 6.84191L55.0896 6.7633L55.0101 6.69125L54.9843 6.67159L54.965 6.64758L54.9435 6.62137L54.9263 6.59299L54.9134 6.56897L54.9048 6.54058L54.8962 6.51438V6.486L54.8919 6.45761L54.8962 6.43141L54.9005 6.40302L54.9091 6.37682L54.9177 6.35499L54.9285 6.32878L54.9413 6.30258L54.9585 6.28293L54.9757 6.25891L54.9972 6.24144L55.0144 6.21961L55.0401 6.20432L55.0638 6.19341L55.0874 6.18031L55.1175 6.17157L55.1454 6.16284L55.1733 6.15847L55.2034 6.1541L55.2356 6.15847L55.2678 6.16284L55.3 6.17157L55.3344 6.18031L55.3666 6.19777L55.4031 6.21524L55.4891 6.26765L55.5707 6.32223L55.6523 6.37682L55.7296 6.43359L55.8048 6.49255L55.8778 6.54932L55.9466 6.61264L56.011 6.67814L56.0754 6.73928L56.1399 6.80479L56.1979 6.87684L56.2537 6.94235L56.3074 7.01222L56.3568 7.08646L56.4062 7.15852L56.4492 7.23275L56.4921 7.30699L56.5329 7.3856L56.5695 7.46421L56.6017 7.54281L56.6339 7.62142L56.664 7.70439L56.6919 7.78737L56.7112 7.87034L56.7306 7.95331L56.752 8.03628L56.7649 8.12363L56.7778 8.21097L56.7885 8.29612L56.7928 8.38346L56.7971 8.47299L56.8036 8.56251ZM47.1208 11.0146V10.9709L47.1165 10.9163L47.1079 10.8574L47.0972 10.8006L47.0843 10.7351L47.0607 10.6696L47.0349 10.6041L46.9984 10.5386L46.9769 10.5102L46.9554 10.4818L46.9296 10.4491L46.8996 10.4229L46.8717 10.3945L46.8394 10.3683L46.8008 10.3464L46.7664 10.3246L46.7234 10.3028L46.6805 10.2853L46.6354 10.2678L46.586 10.2569L46.5323 10.2482L46.4743 10.2394L46.4141 10.2351L46.3497 10.2307L46.2702 10.2351L46.1929 10.2438L46.1156 10.2613L46.0318 10.2831L45.9545 10.3049L45.8772 10.3399L45.7998 10.377L45.7268 10.4185L45.6516 10.4687L45.5786 10.5211L45.5056 10.5801L45.4347 10.6456L45.366 10.7154L45.3015 10.7897L45.2371 10.8705L45.1727 10.9578L45.1125 11.0452L45.0545 11.1434L44.9987 11.2417L44.9493 11.3443L44.8999 11.4578L44.8548 11.567L44.814 11.6893L44.7774 11.8116L44.7409 11.9426L44.713 12.0736L44.6829 12.2111L44.6615 12.3509L44.6443 12.4994L44.6314 12.6478L44.6228 12.8007L44.6185 12.9601L44.771 12.9557L44.9171 12.947L45.0567 12.9252L45.1963 12.9011L45.3252 12.8706L45.454 12.8334L45.5765 12.792L45.6946 12.7483L45.8084 12.6937L45.9201 12.6347L46.0275 12.578L46.1242 12.5125L46.2187 12.4448L46.3132 12.3749L46.3991 12.3007L46.4807 12.2264L46.5538 12.15L46.6289 12.0714L46.6934 11.9906L46.7535 11.9098L46.8115 11.8269L46.8652 11.7504L46.9146 11.6675L46.9554 11.5888L46.9919 11.5059L47.0242 11.4316L47.0542 11.3508L47.0757 11.2766L47.095 11.2067L47.1058 11.1412L47.1144 11.0757L47.1208 11.0146ZM53.4357 1.60368L53.3991 1.59931L53.3669 1.59494L53.3347 1.58621L53.3003 1.57311L53.2724 1.56001L53.2445 1.54254L53.2144 1.52289L53.1929 1.49887L53.1715 1.47267L53.15 1.44865L53.1328 1.42026L53.1135 1.38533L53.1006 1.35257L53.092 1.31982L53.0877 1.2827V0.544677L53.0834 0.498823L53.0748 0.455153L53.0662 0.407116L53.049 0.365629L53.0297 0.324142L53.0104 0.287023L52.9846 0.249903L52.9567 0.217151L52.9223 0.188765L52.8858 0.158196L52.8493 0.138544L52.8063 0.118893L52.7677 0.101425L52.7247 0.0926909L52.6774 0.0839569L52.6323 0.0795898L52.5915 0.0839569L52.555 0.0883239L52.5185 0.0970579L52.482 0.110159L52.4433 0.127627L52.4111 0.145095L52.3832 0.16693L52.351 0.188765L52.293 0.228068L52.235 0.271738L52.1748 0.302307L52.1104 0.332877L52.0438 0.361262L51.9794 0.383097L51.9085 0.400565L51.8441 0.413666L51.7732 0.4224L51.7044 0.426767H51.6336L51.5605 0.4224L51.4918 0.409299L51.4209 0.396198L51.3522 0.376547L51.2835 0.350345L51.2255 0.330693L51.1632 0.317592L51.1052 0.304491L51.045 0.300124L50.9827 0.304491L50.9269 0.308858L50.8646 0.321959L50.8088 0.339427L50.7551 0.365629L50.7014 0.389648L50.6477 0.424584L50.6004 0.461703L50.5553 0.498823L50.5124 0.542493L50.4715 0.597081L50.4393 0.651668L50.4114 0.708439L50.3856 0.767394L50.3684 0.824165L50.3556 0.887487L50.347 0.948625V1.00758L50.3513 1.06872L50.3599 1.12767L50.3727 1.18881L50.3942 1.2434L50.42 1.30017L50.4479 1.35476L50.4801 1.40279L50.5167 1.45301L50.5596 1.49887L50.6069 1.54036L50.6606 1.58621L50.7143 1.63643L50.7572 1.68883L50.8045 1.74779L50.8453 1.80456L50.8818 1.86788L50.9097 1.92902L50.9376 1.99452L50.9634 2.06221L50.9806 2.12772L50.9978 2.19759L51.0064 2.26965L51.015 2.33952V2.40939L51.0107 2.48145L51.0064 2.55569L51.0021 2.59281L50.9978 2.62992L51.0021 2.66704L51.0064 2.70416L51.015 2.74128L51.0236 2.7784L51.0407 2.81552L51.0579 2.85264L51.0858 2.88976L51.1159 2.92688L51.1481 2.95963L51.1804 2.9902L51.2169 3.01422L51.2534 3.03606L51.2963 3.05134L51.3393 3.06881L51.3823 3.07754L51.4252 3.08191L51.4703 3.08628L51.5133 3.08191L51.5562 3.07318L51.5992 3.06008L51.6422 3.04261L51.6851 3.02077L52.2865 2.66486L52.3209 2.64739L52.3531 2.63429L52.3875 2.62556L52.4197 2.62119L52.4519 2.61682H52.4841L52.5164 2.62119L52.5507 2.62992L52.5829 2.63866L52.6109 2.65176L52.6409 2.66923L52.6689 2.69106L52.6925 2.7129L52.7183 2.73473L52.7376 2.76312L52.7591 2.79369L52.7763 2.82644L52.7891 2.85919L52.7977 2.89195L52.8063 2.9247V2.99239L52.802 3.02514L52.7934 3.05789L52.7848 3.09283L52.772 3.12121L52.7548 3.1496L52.7333 3.17798L52.7118 3.20419L52.6903 3.22821L52.6603 3.25004L52.6323 3.27188L52.0266 3.62124L51.9901 3.64744L51.9515 3.67582L51.9192 3.70858L51.8913 3.74133L51.8677 3.78063L51.8462 3.81994L51.8247 3.86361L51.814 3.90291L51.8054 3.94658L51.8011 3.99025L51.7968 4.03392L51.8011 4.08196L51.8097 4.12563L51.8204 4.17366L51.8376 4.21515L51.8591 4.25445L51.8806 4.28939L51.9064 4.32214L51.9321 4.35053L51.96 4.37455L51.988 4.39638L52.0202 4.41822L52.0524 4.4335L52.0868 4.45097L52.1512 4.48154L52.2135 4.51429L52.2758 4.55141L52.3316 4.5929L52.3896 4.63438L52.439 4.6846L52.4863 4.73264L52.5314 4.78723L52.5765 4.844L52.613 4.90295L52.6474 4.96409L52.6796 5.02741L52.7032 5.09292L52.729 5.16279L52.7462 5.23485L52.7591 5.30909L52.772 5.37022L52.7891 5.42918L52.8106 5.48595L52.8364 5.54054L52.8686 5.59513L52.9073 5.6388L52.9438 5.68465L52.9889 5.72832L53.0319 5.76326L53.0856 5.79601L53.135 5.82658L53.1929 5.8506L53.2509 5.87243L53.3111 5.88335L53.3734 5.89645H53.5001L53.5645 5.88335L53.6225 5.87025L53.6805 5.8506L53.7364 5.82658L53.7901 5.79601L53.8395 5.76326L53.8889 5.72614L53.9297 5.68465L53.9705 5.64098L54.0027 5.59513L54.0349 5.54054L54.065 5.48595L54.0843 5.42918L54.1015 5.37022L54.1144 5.30909L54.1273 5.23485L54.1466 5.16279L54.1681 5.09292L54.196 5.02741L54.2239 4.96409L54.2605 4.90295L54.2991 4.844L54.3378 4.78723L54.3829 4.73264L54.4323 4.6846L54.486 4.63438L54.5397 4.5929L54.5955 4.55141L54.6578 4.51429L54.7201 4.48154L54.7845 4.45097L54.8211 4.4335L54.8533 4.41603L54.8834 4.3942L54.9156 4.37455L54.9435 4.35053L54.9693 4.32214L54.9907 4.28939L55.0122 4.25445L55.0337 4.21515L55.0509 4.17148L55.0638 4.12781L55.0724 4.08196L55.0767 4.0361V3.99025L55.0681 3.94658L55.0595 3.90291L55.0466 3.86142L55.0294 3.81994L55.0036 3.78063L54.9822 3.74133L54.9521 3.70858L54.9177 3.67582L54.8812 3.64744L54.8447 3.62124L54.239 3.27188L54.2111 3.25004L54.1831 3.22821L54.1574 3.20419L54.138 3.17798L54.1165 3.1496L54.1037 3.12121L54.0865 3.09283L54.0779 3.05789L54.0693 3.02514L54.065 2.99239V2.95963L54.0693 2.9247L54.0736 2.89195L54.0822 2.85919L54.0951 2.82644L54.1123 2.79369L54.1337 2.76312L54.1552 2.73473L54.1767 2.7129L54.2025 2.69106L54.2304 2.66923L54.2605 2.65176L54.2927 2.63866L54.3206 2.62992L54.355 2.62119L54.3872 2.61682H54.4194L54.4559 2.62119L54.4881 2.62556L54.5204 2.63429L54.5504 2.64739L54.5826 2.66486L55.1884 3.02077L55.2292 3.04261L55.27 3.06008L55.3129 3.07318L55.3602 3.08191L55.4031 3.08628L55.4504 3.08191L55.4912 3.07754L55.5342 3.06881L55.5771 3.05134L55.6158 3.03387L55.6587 3.01422L55.6953 2.9902L55.7275 2.95963L55.7597 2.92688L55.7876 2.88976L55.8134 2.85264L55.8306 2.81552L55.8478 2.7784L55.8606 2.74128L55.8692 2.70416L55.8735 2.66704V2.59281L55.8692 2.55569L55.8606 2.48145L55.8564 2.40939V2.33952L55.8649 2.26965L55.8735 2.19759L55.8907 2.12772L55.9079 2.06221L55.9315 1.99671L55.9616 1.92902L55.9895 1.86788L56.026 1.80456L56.069 1.74779L56.112 1.68883L56.1549 1.63643L56.2108 1.58621L56.2645 1.54036L56.3117 1.49887L56.3547 1.4552L56.389 1.40279L56.4277 1.35476L56.4556 1.30017L56.4792 1.2434L56.4964 1.18881L56.5136 1.12767L56.5222 1.06872L56.5265 1.00758V0.948625L56.5179 0.887487L56.505 0.824165L56.4878 0.767394L56.4642 0.708439L56.4341 0.651668L56.3998 0.597081L56.3611 0.542493L56.3182 0.498823L56.2709 0.461703L56.2236 0.424584L56.1742 0.389648L56.1205 0.365629L56.0626 0.339427L56.0067 0.321959L55.9487 0.308858L55.8886 0.304491L55.8241 0.300124L55.7683 0.304491L55.7081 0.317592L55.6459 0.330693L55.5879 0.352528L55.5191 0.376547L55.4504 0.396198L55.3795 0.409299L55.3108 0.4224L55.2399 0.426767H55.1669L55.0981 0.4224L55.0337 0.413666L54.9628 0.400565L54.8919 0.383097L54.8275 0.361262L54.7631 0.332877L54.7008 0.302307L54.6385 0.271738L54.5741 0.228068L54.5161 0.186582L54.4881 0.16693L54.4559 0.145095L54.4216 0.127627L54.3893 0.110159L54.3528 0.0970579L54.3163 0.0883239L54.2733 0.0839569L54.2347 0.0795898L54.1896 0.0839569L54.1445 0.0926909L54.0994 0.101425L54.0564 0.118893L54.0177 0.140728L53.9812 0.158196L53.949 0.188765L53.9146 0.217151L53.8824 0.249903L53.8588 0.287023L53.833 0.324142L53.8158 0.367813L53.7987 0.407116L53.7858 0.452969L53.7772 0.498823V1.25213L53.7729 1.28489L53.7686 1.322L53.76 1.35476L53.7471 1.38751L53.7342 1.41808L53.7149 1.44646L53.6977 1.47048L53.6741 1.49669L53.6483 1.5207L53.6268 1.54254L53.5968 1.55782L53.5645 1.57092L53.5366 1.58403L53.5022 1.59276L53.4657 1.59713L53.4357 1.60368ZM17.1145 17.5476L16.9814 17.6677L16.8525 17.7835L16.7107 17.8948L16.5733 18.004L16.4294 18.111L16.2833 18.2136L16.1351 18.314L15.9847 18.4079L15.8279 18.504L15.6733 18.5957L15.5143 18.6831L15.3511 18.7638L15.1857 18.8425L15.0182 18.9167L14.8506 18.9909L14.6788 19.0564L14.507 19.1241L14.3351 19.1874L14.159 19.2442L13.9786 19.2988L13.8003 19.3468L13.6199 19.3927L13.4395 19.4364L13.2569 19.4713L13.0765 19.5062L12.8874 19.5346L12.7049 19.5586L12.5202 19.5805L12.3311 19.5936L12.1443 19.6067L11.9553 19.6154H11.7662L11.3753 19.6067L10.9823 19.5739L10.5956 19.5237L10.2176 19.4582L9.84386 19.3665L9.47872 19.2639L9.11572 19.1394L8.76561 18.9975L8.42195 18.8403L8.08687 18.6656L7.75824 18.4756L7.44465 18.2726L7.1375 18.0542L6.84324 17.8228L6.55542 17.5738L6.28693 17.3184L6.02488 17.0454L5.78002 16.7616L5.5459 16.4646L5.32466 16.1589L5.12061 15.8445L4.9316 15.517L4.75976 15.1829L4.60082 14.8379L4.45906 14.4842L4.33448 14.1239L4.22923 13.7527L4.13902 13.3771L4.07029 12.9972L4.02088 12.6129L3.99296 12.2199L3.98007 11.8225L3.98867 11.4906L4.01229 11.1609L4.0531 10.8334L4.1068 10.5058L4.17553 10.1783L4.26145 9.85515L4.36025 9.53854L4.47409 9.22848L4.59652 8.91624L4.73614 8.61491L4.88649 8.32014L5.04973 8.03192L5.22586 7.75025L5.41488 7.47731L5.61034 7.21092L5.81868 6.95982L6.03562 6.71526L6.26545 6.47945L6.50601 6.26109L6.75302 6.04929L7.01077 5.85278L7.27067 5.67373L7.5456 5.50342L7.82698 5.35057L8.1148 5.21301L8.40906 5.09292L8.70762 4.99029L9.01477 4.90295L9.32837 4.83308L9.64411 4.78286L9.96629 4.75448L10.2949 4.74137H10.4174L10.5355 4.74574L10.6579 4.75448L10.7804 4.76758L10.9006 4.78068L11.0231 4.79815L11.1455 4.81561L11.2636 4.83963L11.3861 4.86583L11.5042 4.88767L11.6245 4.91824L11.7426 4.95099L11.8607 4.98811L11.9746 5.02741L12.0949 5.06235L12.2087 5.10602L12.3183 5.14969L12.4299 5.19991L12.5395 5.25013L12.6512 5.30035L12.7586 5.35276L12.8595 5.41171L12.9605 5.46848L13.0593 5.5318L13.1581 5.59294L13.2569 5.65626L13.3471 5.72177L13.4352 5.79164L13.5211 5.8637L13.607 5.93794L13.6886 6.01218L13.7681 6.08641L13.796 6.11043L13.8239 6.12353L13.8562 6.13663H13.8905L13.927 6.13227L13.955 6.11917L13.9721 6.11043L13.985 6.1017L14.0022 6.08423L14.0151 6.07113L18.3281 0.324142L18.3453 0.302307L18.3582 0.280472L18.3625 0.265188L18.3668 0.243353L18.3711 0.221518L18.3668 0.206233L18.3603 0.184398L18.3539 0.162563L18.3453 0.147279L18.3345 0.134178L18.3217 0.116709L18.3045 0.107975L18.2873 0.0948744L18.2658 0.0905074L18.2486 0.0861404L18.2271 0.0817734H5.27956L5.2366 0.0861404L5.1872 0.0948744L5.14424 0.107975L5.09699 0.121076L5.05403 0.140728L5.01107 0.164747L4.97456 0.190949L4.93804 0.219334L4.66526 0.474804L4.39462 0.736825L4.12828 1.00103L3.87053 1.27397L3.62137 1.54691L3.37651 1.82421L3.14024 2.11025L2.91042 2.40066L2.68489 2.69325L2.47224 2.98802L2.2639 3.28934L2.06629 3.59503L1.87512 3.90728L1.6904 4.21952L1.51428 4.54049L1.35103 4.86147L1.19209 5.18899L1.04388 5.51652L0.906417 5.8506L0.775395 6.19122L0.655112 6.52967L0.547717 6.87903L0.442469 7.22402L0.354405 7.58212L0.270636 7.93803L0.201903 8.29831L0.139614 8.66077L0.09236 9.02541L0.0494019 9.39661L0.0214791 9.76999L0.00429583 10.1477L0 10.5277L0.0128874 11.0866L0.0558456 11.6413L0.124579 12.1828L0.214791 12.7177L0.332926 13.2374L0.474688 13.7505L0.642225 14.2484L0.83124 14.7375L1.04603 15.2135L1.27801 15.6764L1.53146 16.124L1.80424 16.552L2.09421 16.9712L2.40566 17.373L2.73644 17.7573L3.0844 18.1263L3.44524 18.4778L3.82542 18.8097L4.21849 19.1219L4.62659 19.4167L5.04758 19.6897L5.48146 19.9429L5.92823 20.1788L6.38573 20.3862L6.85612 20.5762L7.33511 20.7377L7.82053 20.8819L8.31455 20.9976L8.81931 21.0893L9.33051 21.1548L9.85031 21.1985L10.3744 21.2094L10.6343 21.205L10.8963 21.1941L11.1541 21.1766L11.4161 21.1526L11.6739 21.1199L11.9273 21.0827L12.1808 21.0369L12.4342 20.9867L12.6834 20.9299L12.9347 20.8644L13.1796 20.7923L13.4244 20.7137L13.6671 20.6307L13.9077 20.5434L14.1397 20.4495L14.3781 20.3491L14.6058 20.2464L14.8356 20.1351L15.0611 20.0194L15.2824 19.8993L15.5036 19.7748L15.7162 19.6438L15.9289 19.5106L16.1372 19.3687L16.3413 19.2246L16.541 19.0761L16.7386 18.9232L16.932 18.7704L17.1188 18.6066L17.3035 18.4429L17.4818 18.2726L17.658 18.0979L17.6945 18.0629L17.7245 18.0193L17.7525 17.98L17.7718 17.9363L17.789 17.897L17.8019 17.8533L17.8105 17.8184L17.8147 17.7747V17.7398L17.8105 17.7048L17.8019 17.6655L17.789 17.6284L17.7718 17.6L17.7546 17.5673L17.7331 17.5367L17.7095 17.5083L17.6837 17.4887L17.6558 17.4647L17.6236 17.4472L17.5914 17.4297L17.557 17.4166L17.5205 17.4079L17.484 17.4035L17.4475 17.3992L17.4066 17.4035L17.3637 17.4079L17.325 17.421L17.2842 17.4385L17.2391 17.4603L17.1983 17.4843L17.1575 17.5171L17.1145 17.5476Z" fill="#B7B7B7"/>
</svg>
