<svg width="148" height="26" viewBox="0 0 148 26" fill="none" xmlns="http://www.w3.org/2000/svg">
<path fill-rule="evenodd" clip-rule="evenodd" d="M45.7206 7.5484C43.8737 7.5484 42.5113 8.01999 41.4111 8.96317V2.79572H36.527V23.7635H41.1238V22.086C41.9857 23.4839 43.4222 24.3226 45.7206 24.3226C50.3174 24.3226 53.7651 20.6882 53.7651 15.9355C53.7651 13.1398 52.6158 10.6237 50.6047 9.22582C49.1682 8.10754 47.4444 7.5484 45.7206 7.5484ZM41.1238 15.6559C41.1238 17.8925 42.8476 19.5699 45.146 19.5699C47.4444 19.5699 49.1682 17.8925 49.1682 15.6559C49.1682 13.4194 47.4444 11.742 45.146 11.742C42.8476 11.742 41.1238 13.4194 41.1238 15.6559ZM35.0905 15.656C35.0905 20.4086 31.3555 24.0431 26.4714 24.0431C21.5873 24.0431 17.8524 20.4086 17.8524 15.656C17.8524 10.9033 21.5873 7.26886 26.4714 7.26886C31.3555 7.54843 35.0905 10.9033 35.0905 15.656ZM22.7365 15.656C22.7365 17.8925 24.4603 19.5699 26.4714 19.5699C28.4825 19.5699 30.2063 17.8925 30.2063 15.656C30.2063 13.4194 28.4825 11.742 26.4714 11.742C24.4603 11.742 22.7365 13.699 22.7365 15.656ZM55.2016 2.79572V23.4839V23.7635H66.9809V19.0108H60.6603V2.79572H55.2016ZM80.1968 23.4839V21.8065C79.3349 23.2043 77.6111 24.043 75.6 24.043C71.0031 24.043 67.5555 20.4086 67.5555 15.6559C67.5555 10.9032 71.0031 7.26883 75.6 7.26883C77.8984 7.26883 79.3349 8.10754 80.1968 9.50539V8.10754H85.0809V23.7635H80.1968V23.4839ZM72.1523 15.9355C72.1523 18.1721 73.8762 19.8495 76.1746 19.8495C78.473 19.8495 80.1968 18.1721 80.1968 15.9355C80.1968 13.6989 78.473 12.0215 76.1746 12.0215C73.8762 11.742 72.1523 13.4194 72.1523 15.9355ZM97.1476 15.0968V23.4839V23.7635H102.032V13.9785C102.032 11.4624 101.457 10.0645 100.308 8.94625C99.1587 8.10754 97.4349 7.5484 95.9984 7.5484C93.9873 7.5484 92.8381 8.10754 91.6889 9.78496V8.10754H87.092V23.4839H91.9762V15.0968C91.9762 12.8602 92.5508 11.742 94.5619 11.742C96.2857 11.742 97.1476 12.8602 97.1476 15.0968ZM115.822 23.4839V21.8065C114.673 23.2043 113.236 24.043 110.938 24.043C106.341 24.043 102.894 20.6882 102.894 15.6559C102.894 10.9032 106.341 7.26883 110.938 7.26883C112.949 7.26883 114.386 7.82797 115.535 9.22582V2.79572H120.419V23.4839H115.822ZM107.778 15.6559C107.778 17.8925 109.502 19.5699 111.8 19.5699C114.098 19.5699 115.822 17.8925 115.822 15.6559C115.822 13.4194 114.098 11.742 111.8 11.742C109.502 11.742 107.778 13.4194 107.778 15.6559ZM130.187 24.043C133.635 24.043 136.221 22.3656 137.944 18.7312H133.06C132.198 19.8495 131.336 20.129 130.187 20.129C128.176 20.129 126.74 19.0108 126.452 17.0538H138.519V15.9355C138.519 11.1828 135.071 7.5484 130.187 7.5484C125.59 7.5484 121.856 11.1828 121.856 15.9355C121.856 20.4086 125.59 24.043 130.187 24.043ZM129.9 11.1828C131.911 11.1828 133.06 12.3011 133.635 13.9785H126.165C126.74 12.0215 127.889 11.1828 129.9 11.1828ZM148 12.0215C145.127 12.0215 144.265 12.8602 144.265 14.8172V23.4839H139.381V8.10754H143.978V9.78496C144.84 8.38711 145.989 7.5484 148 7.5484V12.0215ZM10.9571 16.0968V3.79572H16.7031V16.0968C16.7031 20.5699 13.2555 23.9247 8.6587 23.9247C4.06188 23.9247 0.614258 20.2903 0.614258 16.0968H4.63648H5.78569C5.78569 17.4946 6.93489 18.6129 8.3714 18.6129C9.80791 18.6129 10.9571 17.4946 10.9571 16.0968Z" fill="#B7B7B7"/>
</svg>
