<svg width="65" height="13" viewBox="0 0 65 13" fill="none" xmlns="http://www.w3.org/2000/svg">
<path d="M6.62241 3.80362C6.28191 4.46339 6.00395 5.13966 5.77232 5.84656C5.63334 6.33432 5.46424 6.81973 5.35537 7.32162C5.35537 7.35226 5.33916 7.36875 5.30905 7.41588C5.03109 7.22737 4.76934 7.05536 4.50528 6.88099C4.47517 6.80323 4.45895 6.73961 4.44274 6.67599C4.05591 6.44036 3.8567 6.07984 3.70151 5.68633C3.63897 5.48133 3.57874 5.27868 3.5162 5.07368C3.49999 5.04305 3.49999 5.01006 3.43976 5.01006C3.40965 5.12081 3.37722 5.2457 3.33089 5.37058C3.19191 5.88897 3.02282 6.39087 2.83751 6.87863C2.57577 7.56904 2.31171 8.27594 2.09629 8.96634C1.95731 9.42112 1.772 9.86175 1.57048 10.2859C1.47782 10.4909 1.38517 10.71 1.29252 10.915C1.2624 10.9787 1.21608 11.0564 1.18365 11.12C1.12111 11.1507 1.07478 11.1035 1.04467 11.0894C0.833882 10.9339 0.602248 10.8396 0.370614 10.7289C0.261746 10.6653 0.155195 10.604 0.0625411 10.5404C0.0324287 10.5239 0.0162144 10.4932 0 10.4768C0.0625411 10.1634 0.201521 9.86411 0.308073 9.56485C0.430839 9.20433 0.569819 8.85795 0.694902 8.49743C0.926535 7.80703 1.18828 7.11427 1.49867 6.45685C1.7303 5.98558 1.93183 5.51432 2.13103 5.02656C2.31634 4.58592 2.4391 4.11466 2.57808 3.65988C2.77961 3.00011 2.97881 2.34034 3.18033 1.68057C3.21044 1.56982 3.25677 1.44493 3.3031 1.35068C3.33321 1.28706 3.39575 1.23993 3.42586 1.2093C3.47219 1.2093 3.48841 1.1928 3.5023 1.2093C3.68761 1.28706 3.82659 1.42844 4.0119 1.50855C4.02811 1.50855 4.04201 1.53919 4.05823 1.55568C4.04201 1.6193 4.02811 1.68057 4.0119 1.77482C4.05822 1.80545 4.10455 1.85258 4.15088 1.9162C4.18099 2.01045 4.19721 2.10471 4.15088 2.19896C4.13698 2.26494 4.12308 2.34269 4.12308 2.40632C4.12308 2.78333 4.10687 3.17684 4.1393 3.55385C4.15551 4.00862 4.21574 4.46575 4.3246 4.92052C4.38714 5.20328 4.46358 5.48604 4.54002 5.7688C4.55624 5.81593 4.57014 5.86305 4.63268 5.87955C4.66279 5.80179 4.69522 5.72167 4.70912 5.62742C4.83188 5.23391 4.97086 4.82627 5.14227 4.44926C5.29747 4.13586 5.45034 3.82011 5.63565 3.52322C6.00627 2.91057 6.40699 2.29792 6.79382 1.70177C6.85636 1.59102 6.91659 1.49677 6.99534 1.40252C7.05788 1.30826 7.13432 1.21401 7.22698 1.15039C7.33584 1.15039 7.39607 1.22815 7.45861 1.29177C7.52115 1.35539 7.59759 1.40252 7.69024 1.46378C7.70646 1.49442 7.72036 1.55804 7.75278 1.62166C7.81533 1.66878 7.89177 1.71591 7.95431 1.77953C8.06317 1.90442 8.04696 2.06229 8.01685 2.22017C7.95431 2.67494 7.89408 3.1462 7.84775 3.61747C7.81764 4.02512 7.73889 4.44926 7.69256 4.8569C7.66245 5.12317 7.64623 5.39179 7.61612 5.64156C7.58601 5.90782 7.55358 6.15995 7.52347 6.41208C7.52347 6.4757 7.52347 6.52283 7.50725 6.56995C7.47714 7.32398 7.4146 8.0945 7.43081 8.86266C7.44703 9.0983 7.43081 9.33393 7.44703 9.58606C7.47714 10.1351 7.5559 10.7006 7.72499 11.2355C7.77132 11.3934 7.84775 11.5489 7.92651 11.7068C7.94272 11.7704 7.98905 11.8316 8.01916 11.8953C7.98905 11.9259 7.97284 11.9589 7.95662 11.9895C7.9103 11.9895 7.88018 12.006 7.86397 11.9895C7.56979 11.7704 7.24551 11.629 6.93743 11.4711C6.64326 11.3297 6.49038 11.0941 6.38151 10.8278C6.24253 10.4673 6.16609 10.1045 6.07344 9.72744C6.0109 9.44468 6.04333 9.14542 5.98079 8.86266C5.96457 8.79904 5.96457 8.72128 5.98079 8.64353C6.02711 8.40789 5.997 8.17226 6.02711 7.93663C6.07344 7.60674 6.07344 7.29335 6.13598 6.9776C6.18231 6.67835 6.21242 6.38145 6.25875 6.08219C6.30507 5.68869 6.38151 5.31167 6.47417 4.93466C6.55061 4.57414 6.64326 4.22776 6.72201 3.88374C6.73823 3.80598 6.72201 3.74236 6.73823 3.6646C6.76834 3.6481 6.78456 3.63396 6.75444 3.57034C6.75444 3.61747 6.75444 3.6481 6.73823 3.68109C6.65484 3.67873 6.65484 3.75649 6.62241 3.80362Z" fill="#9B9B9B"/>
<path d="M10.6668 9.01815C10.5741 9.20665 10.4815 9.39516 10.3888 9.58367C10.28 9.75568 10.1734 9.91355 9.9881 10.0384C9.92555 10.0219 9.86533 10.0219 9.80279 10.0078C9.35574 9.83579 8.90637 9.66143 8.45931 9.50591C8.19757 9.41165 8.07248 9.22315 8.01226 8.95688C7.96593 8.78487 7.94972 8.6105 7.93582 8.422C7.90571 7.6986 8.01226 7.0082 8.21378 6.31779C8.30643 5.9879 8.47553 5.68865 8.64694 5.39175C8.72338 5.25037 8.81603 5.0925 8.90868 4.96761C9.1241 4.65422 9.38816 4.43273 9.74256 4.32433C9.819 4.2937 9.89776 4.27721 9.9742 4.24657C10.4213 4.32433 10.8081 4.55997 11.225 4.73434C11.3478 4.54583 11.2713 4.27956 11.4729 4.13818C11.7045 4.16882 11.8898 4.3102 12.1052 4.37382C12.1516 4.39031 12.1817 4.43744 12.2141 4.46807C12.2303 4.54583 12.2303 4.62594 12.2303 4.7202C12.2303 5.05008 12.2303 5.39646 12.2002 5.74049C12.1701 6.14813 12.1701 6.55814 12.1539 6.96578C12.1539 7.68918 12.1539 8.41021 12.1701 9.14775C12.1701 9.2255 12.14 9.31976 12.2164 9.39987C12.3091 9.39987 12.3392 9.33625 12.3855 9.28913C12.4944 9.17838 12.6009 9.08412 12.6797 8.95924C12.7723 8.84849 12.8349 8.72361 12.9113 8.59872C13.0503 8.34659 13.1893 8.09682 13.3283 7.84469C13.4371 7.67268 13.6062 7.30981 13.6224 7.10716C13.6224 7.04354 13.6688 6.99641 13.7313 6.96578C13.9166 6.99641 14.0718 7.15429 14.271 7.17078C14.3011 7.2344 14.3173 7.28153 14.3335 7.31216C14.2571 7.42291 14.1946 7.50067 14.1482 7.59492C14.0857 7.68918 14.0718 7.79992 14.0255 7.89418C13.8101 8.31832 13.5159 8.91447 13.3005 9.33861C13.2379 9.47999 13.1777 9.63786 13.0989 9.77924C13.0526 9.8735 12.9901 9.98424 12.9136 10.0785C12.7747 10.267 12.6519 10.3141 12.4203 10.2364C12.1585 10.1421 11.8805 10.0314 11.6165 9.93712C11.5076 9.88999 11.4011 9.84286 11.2922 9.81223C11.137 9.76511 11.0304 9.65436 10.9679 9.51298C10.8753 9.3716 10.8451 9.19959 10.7988 9.04171C10.7988 8.99458 10.7826 8.96395 10.7826 8.91682C10.7131 8.92389 10.6992 8.97102 10.6668 9.01815ZM10.2035 5.21738C10.141 5.34227 10.0645 5.45302 10.002 5.5944C9.74025 6.15992 9.58505 6.77256 9.55494 7.41584C9.53873 7.77636 9.55494 8.13924 9.55494 8.49975C9.55494 8.54688 9.57115 8.57751 9.64759 8.56337C9.74025 8.39136 9.86301 8.20286 9.97188 7.99786C10.141 7.65147 10.3263 7.30745 10.4815 6.96107C10.6042 6.64768 10.7293 6.34842 10.8822 6.04917C10.9285 5.93842 10.9586 5.83003 11.0212 5.70279C10.9749 5.67216 10.9285 5.63917 10.8822 5.62503C10.9285 5.31164 10.9285 5.04302 10.7131 4.80738C10.5139 4.90399 10.3286 5.01238 10.2035 5.21738Z" fill="#9B9B9B"/>
<path d="M14.5119 4.5106C14.6045 4.57422 14.7134 4.63548 14.82 4.68261C14.9126 4.71324 14.9891 4.79336 15.0354 4.82399C15.1118 4.96537 15.1118 5.09026 15.0979 5.201C15.0678 5.43664 15.0678 5.67227 15.1141 5.89141C15.1141 5.92204 15.1303 5.95503 15.1605 6.00216C15.4222 5.46727 15.7465 5.0125 16.1032 4.55772C16.1658 4.52709 16.226 4.52709 16.2885 4.55772C16.3511 4.58836 16.4113 4.62134 16.4738 4.65198C16.6429 4.74623 16.7981 4.84048 16.9672 4.93474C17.09 4.99836 17.1826 5.07612 17.2614 5.18686C17.3239 5.28112 17.354 5.37537 17.2776 5.50026C17.0297 5.4225 16.8444 5.2175 16.5827 5.15388C16.4136 5.27876 16.2584 5.43664 16.1356 5.62514C15.904 5.93853 15.7187 6.30141 15.6098 6.69256C15.4546 7.19446 15.3018 7.69871 15.1303 8.20061C15.084 8.35849 15.0678 8.51401 15.0678 8.67188C15.0979 8.98527 15.0215 9.30102 14.9589 9.59792C14.9126 9.75579 14.8964 9.76993 14.7736 9.9443C14.6184 9.9443 14.4795 9.83355 14.3405 9.78643C14.1853 9.7393 14.0463 9.67568 13.9073 9.58142C13.7985 9.42355 13.7382 9.25154 13.7058 9.06303C13.6294 8.46688 13.6131 7.88487 13.6294 7.28871C13.6456 6.89521 13.722 6.50405 13.7846 6.12704C13.8471 5.7194 13.9235 5.32589 14 4.91824C14.0301 4.79336 14.0463 4.66611 14.0926 4.54123C14.0926 4.4941 14.1227 4.46347 14.139 4.43048C14.2942 4.39985 14.403 4.44698 14.5119 4.5106Z" fill="#9B9B9B"/>
<path d="M18.0165 4.51062C18.0929 4.55775 18.1856 4.58838 18.2782 4.62137C18.3408 4.62137 18.401 4.68499 18.4636 4.71562C18.4636 4.80988 18.4798 4.88763 18.4636 4.96775C18.4473 5.13976 18.4473 5.31413 18.401 5.46965C18.3547 5.7689 18.3547 6.05166 18.3547 6.34856C18.3246 7.26046 18.3084 8.17 18.2921 9.08191C18.2921 9.17616 18.2759 9.27041 18.2921 9.34817C18.2921 9.3953 18.3084 9.42593 18.3084 9.47306C18.4937 9.40944 18.6164 9.28455 18.7091 9.14317C18.7855 9.06541 18.8319 8.97116 18.8944 8.8769C19.0033 8.71903 19.0959 8.54702 19.2025 8.38914C19.4804 8.01213 19.7746 7.52437 19.9437 7.0696C19.9599 7.03897 19.9738 7.00598 20.0062 6.95885C20.1753 7.03661 20.3467 7.10023 20.5158 7.17799C20.5459 7.22512 20.5158 7.25575 20.4996 7.28874C20.407 7.50788 20.2518 7.79063 20.1452 8.01213C20.0526 8.20064 19.9437 8.38914 19.8371 8.59414C19.6819 8.86041 19.5291 9.12903 19.3901 9.3953C19.2673 9.6003 19.1422 9.7888 18.8805 9.8972C18.8504 9.91369 18.7716 9.92783 18.6952 9.94432C18.5724 9.97495 18.4473 9.97496 18.3084 9.92783C18.0142 9.81708 17.7223 9.72283 17.4282 9.61444C16.9811 9.45656 16.7634 9.11254 16.7031 8.6719C16.673 8.34202 16.6869 8.01213 16.7495 7.68224C16.8259 7.08609 16.9649 6.50408 17.1201 5.92442C17.2428 5.43666 17.4282 4.98189 17.6598 4.52712C17.676 4.49648 17.7061 4.46349 17.7223 4.43286C17.8613 4.41637 17.9238 4.47999 18.0165 4.51062Z" fill="#9B9B9B"/>
<path d="M23.7216 10.0384C23.6127 9.99131 23.3255 9.83344 23.2166 9.80281C23.0614 9.75568 22.9549 9.64493 22.8924 9.50355C22.7997 9.36217 22.7696 9.19016 22.7233 9.03229C22.7233 8.98516 22.707 8.95453 22.707 8.9074C22.6445 8.92389 22.6306 8.97102 22.5982 9.01815C22.5055 9.20665 22.4129 9.39516 22.3202 9.58367C22.2114 9.75568 22.1048 9.91355 21.9195 10.0384C21.857 10.0219 21.7967 10.0219 21.7342 10.0078C21.2871 9.83579 20.8378 9.66143 20.3907 9.50591C20.129 9.41165 20.0039 9.22315 19.9437 8.95688C19.8973 8.78487 19.8811 8.6105 19.8672 8.422C19.8371 7.6986 19.9437 7.0082 20.1452 6.31779C20.2378 5.9879 20.4069 5.68865 20.5783 5.39175C20.6548 5.25037 20.7474 5.0925 20.8401 4.96761C21.0555 4.65422 21.3196 4.43273 21.674 4.32433C21.7504 4.2937 21.8292 4.27721 21.9056 4.24657C22.3526 4.32433 22.7395 4.55997 23.1564 4.73434C23.2792 4.54583 23.2027 4.27956 23.4043 4.13818C23.6359 4.16882 23.8212 4.3102 24.0366 4.37382C24.083 4.39031 24.1131 4.43744 24.1455 4.46807C24.1617 4.54583 24.1617 4.62594 24.1617 4.7202C24.1617 5.05008 23.6822 8.42906 23.6498 8.77545M22.1372 5.21738C22.0747 5.34227 21.9982 5.45302 21.9357 5.5944C21.674 6.15992 21.5188 6.77256 21.4887 7.41584C21.4724 7.77636 21.4887 8.13924 21.4887 8.49975C21.4887 8.54688 21.5049 8.57751 21.5813 8.56337C21.674 8.39136 21.7967 8.20286 21.9056 7.99786C22.0747 7.65147 22.26 7.30745 22.4152 6.96107C22.538 6.64768 22.663 6.34842 22.8159 6.04917C22.8622 5.93842 22.8924 5.83003 22.9549 5.70279C22.9086 5.67216 22.8622 5.63917 22.8159 5.62503C22.8622 5.31164 22.8622 5.04302 22.6468 4.80738C22.4453 4.90399 22.26 5.01238 22.1372 5.21738Z" fill="#9B9B9B"/>
<path d="M36.6027 1.15043C36.4475 1.24469 36.341 1.38607 36.2622 1.54394C36.2622 1.56044 36.2622 1.57457 36.2622 1.57457C36.2321 2.04584 36.2159 2.50061 36.1858 2.95774C36.1696 3.14625 36.1394 3.31826 36.1394 3.50677C36.1232 3.67878 36.1232 3.85315 36.0769 4.04165C36.0607 4.1524 36.0607 4.26079 36.0607 4.37154C36.0445 5.09493 36.0445 5.81597 36.0769 6.53937C36.0931 6.72787 36.107 6.91638 36.1232 7.10489C36.1394 7.29339 36.1232 7.49839 36.1696 7.6869C36.1858 7.73403 36.1858 7.79765 36.1858 7.85891C36.1858 8.03092 36.1858 8.21943 36.2321 8.3938C36.2483 8.45742 36.2483 8.53518 36.2483 8.61294C36.2483 8.92633 36.2946 9.24208 36.341 9.55547C36.3711 9.72748 36.3873 9.90185 36.4174 10.0739C36.4637 10.3731 36.5101 10.6865 36.5564 10.9858C36.5726 11.0635 36.6027 11.1436 36.6328 11.2049C36.649 11.252 36.649 11.2992 36.6629 11.3463C36.6166 11.3934 36.5541 11.3934 36.5077 11.3934C36.2923 11.3157 36.0445 11.3157 35.8128 11.2685C35.704 11.252 35.5974 11.2379 35.4886 11.2214C35.3797 11.1908 35.3032 11.1271 35.2569 11.0164C35.2268 10.9221 35.1944 10.8444 35.1805 10.7501C35.0716 10.2789 34.979 9.8076 34.9326 9.33633C34.9025 9.11719 34.8863 8.8957 34.8701 8.67656C34.8075 8.01679 34.8238 7.35701 34.8238 6.6831C34.8238 6.63597 34.8076 6.58885 34.8076 6.54172C34.5759 6.4946 33.8509 6.4946 33.4479 6.54172C33.4177 6.57235 33.3714 6.63597 33.339 6.6831C33.0911 7.09075 32.8595 7.50075 32.6279 7.90839C32.2109 8.58466 31.8102 9.25857 31.3608 9.90185C31.3145 9.97961 31.2844 10.0432 31.1755 10.0739C31.0064 10.0432 30.8049 10.0102 30.6659 9.91599C30.5895 9.83823 30.6034 9.75812 30.6196 9.69685C30.6497 9.61909 30.696 9.52484 30.7424 9.44472C30.9439 9.05122 31.1292 8.66006 31.3446 8.26656C31.6064 7.76466 31.8843 7.24626 32.1484 6.72787C32.1785 6.69724 32.1785 6.65011 32.2109 6.58649C32.1345 6.57 32.072 6.57 32.0256 6.57C31.7477 6.57 31.4697 6.57 31.1917 6.5535C31.1292 6.5535 31.0528 6.5535 30.9902 6.53701C30.9439 6.52051 30.8976 6.50638 30.8512 6.47339C30.7424 6.28488 30.5895 6.12701 30.5107 5.9385C30.5409 5.86074 30.5872 5.84425 30.6335 5.86074C30.9277 5.90787 31.2056 5.83011 31.4836 5.81362C31.5461 5.81362 31.6064 5.79712 31.6689 5.79712C31.9469 5.76649 32.241 5.7335 32.519 5.71936C32.5815 5.70287 32.6279 5.68873 32.6881 5.67224C32.8271 5.42011 32.9661 5.20097 33.0888 4.94884C33.4293 4.28907 33.7675 3.6128 34.108 2.95538C34.386 2.40636 34.6014 1.84084 34.8029 1.25882C34.8956 1.02319 34.972 0.787558 35.0971 0.568419C35.1735 0.427039 35.2523 0.28566 35.3913 0.191406C35.4839 0.191406 35.5766 0.222039 35.6692 0.28566C35.8545 0.410545 36.0561 0.521293 36.2251 0.662673C36.2553 0.679167 36.2715 0.709799 36.3016 0.709799C36.4707 0.726294 36.5795 0.851179 36.7185 0.945433C36.7116 1.05618 36.6815 1.10331 36.6027 1.15043ZM34.8423 4.10292C34.5805 4.55769 34.3165 5.01482 34.0547 5.46959C34.0547 5.48608 34.0547 5.50022 34.071 5.53321C34.1011 5.56384 34.1636 5.54971 34.2099 5.54971C34.3952 5.53321 34.5805 5.51907 34.7659 5.50258C34.7821 5.50258 34.796 5.48608 34.8284 5.47195C34.8446 5.23631 34.8747 5.00068 34.8747 4.76505C34.8747 4.52941 34.9512 4.29378 34.921 4.04165C34.8886 4.06993 34.8585 4.06993 34.8423 4.10292Z" fill="#9B9B9B"/>
<path d="M39.2271 6.64588C38.8403 7.36927 38.5484 8.13744 38.3006 8.90796C38.1778 9.30146 37.9925 9.67848 37.8373 10.0555C37.8211 10.0861 37.791 10.1191 37.7609 10.1662C37.7146 10.1497 37.6682 10.1497 37.6219 10.1356C37.5594 10.105 37.513 10.072 37.4667 10.0578C37.1725 9.9471 37.0034 9.72796 36.927 9.42871C36.8645 9.19307 36.788 8.95744 36.7116 8.7383C36.6653 8.59692 36.649 8.47204 36.649 8.31416C36.649 7.84289 36.6954 7.35513 36.7417 6.88622C36.8344 6.22645 36.9895 5.58317 37.1285 4.93754C37.1749 4.81265 37.205 4.67127 37.2374 4.52989C37.2536 4.46627 37.2837 4.38851 37.2999 4.32489C37.3764 4.27776 37.4389 4.29426 37.4852 4.32489C37.6543 4.43564 37.8095 4.52989 37.9647 4.63828C38.0111 4.68541 38.0574 4.74903 38.1037 4.79616C38.1199 4.98466 38.1199 5.15668 38.1037 5.34518C38.0875 5.48656 38.0736 5.64444 38.0736 5.78582C38.0435 6.16283 37.9972 6.53984 38.0111 6.93335C38.0111 7.10536 38.0111 7.29387 38.0111 7.46824C38.0273 7.59312 38.0412 7.70387 38.0574 7.82876C38.1338 7.82876 38.1338 7.76513 38.15 7.7345C38.289 7.46824 38.3979 7.18548 38.5369 6.91686C38.6596 6.65059 38.7847 6.39846 38.9237 6.1322C39.0163 5.9272 39.1391 5.73869 39.248 5.53605C39.3406 5.34754 39.4171 5.17553 39.5097 5.00116C39.6186 4.81265 39.7112 4.62414 39.8178 4.43564C39.834 4.40501 39.8803 4.37202 39.9105 4.32489C40.0656 4.35552 40.1583 4.4969 40.2811 4.56052C40.4038 4.63828 40.5127 4.7184 40.6216 4.77966C40.698 4.90455 40.7304 5.03179 40.7304 5.17317C40.7304 5.45593 40.7467 5.73869 40.7142 6.00496C40.698 6.25708 40.6841 6.50685 40.6517 6.75898C40.6216 6.99461 40.6216 7.21375 40.6216 7.44939C40.6054 7.70151 40.6054 7.95129 40.5752 8.20341C40.559 8.43905 40.559 8.67468 40.5752 8.92681C40.5752 8.99043 40.6054 9.05169 40.6216 9.13181C40.7304 9.10118 40.7907 9.03755 40.837 8.9598C41.0524 8.72416 41.3304 8.34715 41.5018 8.06439C41.5319 8.00077 41.5782 7.92301 41.6245 7.85939C41.8098 7.57663 41.9789 7.29387 42.104 6.96398C42.2129 6.96398 42.2731 7.0276 42.3357 7.08887C42.4445 7.19962 42.5673 7.27737 42.7063 7.341C42.7225 7.38812 42.7225 7.41875 42.7364 7.45174C42.5812 7.751 42.4422 8.0479 42.3032 8.34715C42.2106 8.51916 42.0253 8.81842 41.9164 9.00692C41.7473 9.33681 41.5157 9.63606 41.2215 9.88583C41.0825 10.0107 40.9598 10.1521 40.8347 10.2628C40.742 10.31 40.6795 10.2935 40.6193 10.2464C40.2185 9.98009 39.8317 9.71147 39.4449 9.42871C39.1831 9.2402 39.0279 8.97393 39.0279 8.64405C39.0117 8.48617 39.0117 8.34479 39.0441 8.18927C39.0604 8.17278 39.0604 8.15864 39.0604 8.14215C39.0766 7.65439 39.1993 7.19962 39.292 6.74484C39.3082 6.68122 39.3082 6.60346 39.3082 6.53984C39.3545 6.52335 39.3545 6.49272 39.3244 6.42909C39.3244 6.47622 39.3244 6.50685 39.3082 6.53984C39.2433 6.53749 39.2433 6.59875 39.2271 6.64588Z" fill="#9B9B9B"/>
<path d="M47.0239 3.55142C46.7807 3.82947 46.2989 3.95906 46.0372 3.99205C45.882 4.00855 45.7129 4.02268 45.5438 3.99205C45.2195 3.96142 44.8952 3.97556 44.5709 3.94493L43.6745 3.85067L43.6583 3.96142C43.6421 4.03918 43.6421 4.11929 43.6421 4.19705C43.612 4.85683 43.473 5.3116 43.473 5.3116C43.4568 5.61085 43.4568 5.90775 43.4104 6.207C43.3942 6.9139 43.334 7.6373 43.3479 8.34184C43.3479 8.4196 43.3479 8.49972 43.3641 8.57747C43.4266 8.86023 43.3803 9.14299 43.5031 9.40926C43.5193 9.42575 43.5494 9.43989 43.5795 9.42575C43.6722 9.39512 43.7486 9.34799 43.8112 9.25374L43.92 9.08173C44.1679 8.67408 44.4597 8.29707 44.6775 7.88943C44.6937 7.8423 44.7238 7.81167 44.7539 7.76454L45.2635 6.96339C45.3724 6.93275 45.4326 7.01051 45.5113 7.04115C45.5878 7.07178 45.6503 7.10477 45.7129 7.11891C45.7592 7.21316 45.743 7.29092 45.7129 7.37103C45.5901 7.70092 45.4048 8.24994 45.2334 8.56569L44.7238 9.52472C44.6149 9.72972 44.462 9.88524 44.198 9.97949H43.9362C43.7973 9.99599 43.6884 9.963 43.5656 9.91587C43.3965 9.83811 43.2251 9.79099 43.056 9.72736C42.7317 9.61662 42.4839 9.39748 42.3148 9.08409C42.2221 8.92621 42.192 8.73771 42.1596 8.56569C42.0368 7.92241 42.1133 7.26264 42.1133 6.61936C42.1758 6.25884 42.1758 5.88183 42.2523 5.51896C42.2986 5.31395 42.3148 5.09482 42.3449 4.88982L42.514 4.10516C42.5302 4.0109 42.5441 3.91665 42.5765 3.8224C42.5765 3.8059 42.5603 3.77527 42.5603 3.75878C42.5441 3.74228 42.5302 3.72814 42.514 3.72814C42.2059 3.69751 41.9118 3.63389 41.6037 3.65038C41.4647 3.65038 41.3095 3.66688 41.1566 3.63389C40.8486 3.58676 40.5382 3.6174 40.2139 3.60326C39.9521 3.58676 39.6881 3.65038 39.4263 3.68102C39.1646 3.71165 38.9005 3.77527 38.655 3.88602L38.2682 4.07452C38.1755 3.96378 38.0527 3.83889 38.0666 3.63389C38.3145 3.41475 38.6063 3.25688 38.9167 3.17912C39.3638 3.06837 39.8271 2.99061 40.2903 2.99061C40.8764 2.99061 41.4485 2.95998 42.0345 2.99061L42.3889 3.03774C42.5117 3.05423 42.6206 3.05423 42.7433 3.05423C42.7433 3.03774 42.7595 3.0236 42.7734 3.00711C42.836 2.75498 42.9124 2.50521 42.9889 2.25308L43.2205 1.48256C43.2506 1.4048 43.283 1.35767 43.3595 1.31055C43.3896 1.32704 43.4359 1.32704 43.4683 1.35767L43.9316 1.6098L43.9779 1.67342C43.9779 1.70405 43.9941 1.76768 43.9779 1.8148C43.9154 2.17532 43.8552 2.55233 43.8088 2.92935L43.7787 3.11785C44.5153 3.39354 45.8727 3.40061 46.1344 3.33699C46.1808 3.33699 46.3707 3.05423 46.4333 3.05423C46.7877 3.0236 47.1282 2.91285 47.3899 2.66072" fill="#9B9B9B"/>
<path d="M46.3893 4.51034C46.4657 4.55746 46.5584 4.58809 46.651 4.62108C46.7136 4.62108 46.7738 4.6847 46.8364 4.71534C46.8364 4.80959 46.8526 4.88735 46.8364 4.96746C46.8201 5.13948 46.8201 5.31385 46.7738 5.46936C46.7275 5.76862 46.7275 6.05138 46.7275 6.34828C46.6974 7.26018 46.6812 8.16972 46.6649 9.08162C46.6649 9.17587 46.6487 9.27013 46.6649 9.34789C46.6649 9.39501 46.6812 9.42564 46.6812 9.47277C46.8665 9.40915 46.9892 9.28427 47.0819 9.14289C47.1583 9.06513 47.2047 8.97087 47.2672 8.87662C47.3761 8.71875 47.4687 8.54673 47.5753 8.38886C47.8532 8.01185 48.1474 7.52409 48.3165 7.06931C48.3327 7.03868 48.3466 7.00569 48.379 6.95857C48.5481 7.03632 48.7195 7.09995 48.8886 7.1777C48.9187 7.22483 48.8886 7.25546 48.8724 7.28845C48.7798 7.50759 48.6246 7.79035 48.518 8.01185C48.4254 8.20035 48.3165 8.38886 48.2099 8.59386C48.0548 8.86012 47.9019 9.12875 47.7629 9.39501C47.6401 9.60001 47.515 9.78852 47.2533 9.89691C47.2232 9.91341 47.1444 9.92754 47.068 9.94404C46.9452 9.97467 46.8201 9.97467 46.6812 9.92754C46.387 9.8168 46.0951 9.72254 45.801 9.61415C45.3539 9.45628 45.1362 9.11225 45.0759 8.67162C45.0458 8.34173 45.0597 8.01185 45.1223 7.68196C45.1987 7.08581 45.3377 6.50379 45.4929 5.92414C45.6156 5.43637 45.801 4.9816 46.0326 4.52683C46.0488 4.4962 46.0789 4.46321 46.0951 4.43258C46.2364 4.41608 46.2967 4.4797 46.3893 4.51034ZM47.8718 1.4471C47.8718 1.4471 47.8555 1.55785 47.8416 1.58848C47.7027 1.88774 47.61 2.18464 47.5011 2.48389C47.4247 2.70303 47.3622 2.92452 47.2695 3.14366C47.207 3.28504 47.1467 3.44292 47.0217 3.55131C46.8364 3.55131 46.6974 3.44056 46.5283 3.39343C46.4356 3.3628 45.9561 3.59844 46.3615 3.10125C46.7669 2.60171 46.6209 1.2586 46.6209 1.2586C46.6372 1.10072 46.6372 1.10072 46.7599 0.928711C46.7599 0.928711 47.4595 1.48009 47.8718 1.4471Z" fill="#9B9B9B"/>
<path d="M51.1285 12.8966C50.8969 12.7552 50.6027 12.7081 50.3711 12.5832C50.3248 12.5526 50.2784 12.5196 50.2622 12.5055C50.1997 12.4112 50.2159 12.317 50.246 12.2227C50.2761 12.112 50.2622 11.9871 50.246 11.8763C50.2159 11.6242 50.2159 11.3744 50.2159 11.1223C50.2159 10.9809 50.2159 10.8395 50.2321 10.6982C50.2321 10.3518 50.2622 9.99126 50.3248 9.64724C50.341 9.56948 50.341 9.48936 50.341 9.38097C50.1256 9.61661 50.0329 9.89937 49.785 10.0714C49.6924 10.102 49.5835 10.102 49.477 10.0407C49.2755 9.93 49.0763 9.83574 48.8747 9.72735C48.5968 9.56948 48.4277 9.33385 48.3188 9.02045C48.2262 8.75419 48.196 8.47143 48.196 8.18867C48.2123 7.90591 48.2424 7.60665 48.2725 7.3239C48.2887 7.22964 48.3188 7.13539 48.3489 7.02464C48.518 6.47562 48.7496 5.92423 49.0276 5.40584C49.1365 5.20084 49.243 5.01233 49.3982 4.85682C49.4445 4.80969 49.4909 4.76256 49.5534 4.71544C49.7549 4.55756 49.9704 4.51043 50.2182 4.62118C50.5587 4.79319 50.883 4.96756 51.1447 5.26446C51.2536 5.15371 51.2999 5.01233 51.3463 4.87095C51.3764 4.76021 51.3926 4.65181 51.4088 4.54107C51.4389 4.44681 51.4551 4.35256 51.4852 4.25831C51.5478 4.25831 51.5941 4.24181 51.608 4.25831C51.7933 4.36905 51.9786 4.49394 52.1639 4.60469C52.194 4.63532 52.2103 4.66831 52.2265 4.71544C52.1639 5.1867 52.0875 5.65797 52.0111 6.12923C51.9948 6.31774 51.9809 6.50625 51.9485 6.69475C51.9022 7.11889 51.8396 7.52654 51.7794 7.95068C51.7493 8.16982 51.7331 8.40545 51.703 8.64108C51.6729 8.89321 51.6404 9.15948 51.6103 9.41161C51.5802 9.61661 51.5478 9.80511 51.5339 10.0078C51.5177 10.3211 51.4876 10.6204 51.4713 10.9338C51.4551 11.1859 51.4713 11.4357 51.425 11.6878C51.4088 11.7185 51.4088 11.7656 51.4088 11.8127C51.425 12.1261 51.3463 12.4254 51.286 12.7246C51.2698 12.7882 51.2235 12.8495 51.2096 12.9131C51.1749 12.9131 51.1447 12.9131 51.1285 12.8966ZM49.7549 8.67172C50.0028 8.18396 50.2483 7.68206 50.4962 7.1943C50.6653 6.84792 50.7903 6.50389 50.8668 6.12688C50.8969 5.9855 50.9432 5.86061 50.9757 5.73337C50.883 5.65561 50.7602 5.65561 50.7139 5.52837C50.6977 5.43412 50.7139 5.33986 50.6977 5.24561C50.6815 5.16785 50.6514 5.08774 50.5425 5.0736C50.4336 5.10423 50.3572 5.19848 50.2946 5.30923C50.1557 5.49774 50.063 5.70274 49.9704 5.92188C49.7851 6.42378 49.616 6.95866 49.4909 7.49355C49.4283 7.74568 49.382 8.01194 49.382 8.2947C49.382 8.48321 49.382 8.67172 49.3519 8.86022C49.3357 8.95448 49.3218 9.07936 49.382 9.2066C49.5696 9.03224 49.6623 8.86022 49.7549 8.67172Z" fill="#9B9B9B"/>
<path d="M55.9605 4.30569C56.0068 4.32219 56.0531 4.32219 56.0994 4.35282C56.2685 4.44707 56.7318 4.58845 56.9171 4.65207C56.9472 4.93483 56.9171 5.17047 56.9009 5.42259C56.8847 5.50035 56.8708 5.58047 56.8708 5.65823C56.8407 6.01874 56.8407 6.39576 56.7943 6.74214C56.748 7.07202 56.7642 7.40191 56.7642 7.7318C56.748 7.98393 56.7642 8.2337 56.7341 8.48582C56.6878 8.75209 56.6878 8.56358 56.6878 8.8322C56.6878 8.86284 56.704 8.90996 56.704 8.94295C56.7967 8.95945 56.8268 8.89583 56.8731 8.8322C57.2599 8.36094 57.4128 8.1418 57.6305 7.55979C57.6931 7.38777 57.7695 7.24639 57.8321 7.08852C57.8483 7.04139 57.8784 6.99427 57.9085 6.96363C58.0776 6.99427 58.1865 7.05789 58.4181 7.24639C58.4181 7.26289 58.4181 7.29352 58.388 7.32415C58.249 7.51266 58.1401 7.7318 58.0637 7.95329C57.9873 8.1418 57.8321 8.45519 57.7556 8.6437C57.7255 8.72146 57.6792 8.81571 57.6329 8.89583C57.4939 9.13146 57.3549 9.36709 57.1997 9.60273C57.1233 9.71347 57.0144 9.80773 56.938 9.90198C56.7689 9.94911 56.6438 9.91847 56.5048 9.85485C56.257 9.7606 56.0114 9.64985 55.7798 9.54146C55.6246 9.4637 55.4856 9.36945 55.3791 9.2587C55.2239 8.91232 55.2702 8.5518 55.2563 8.17479C55.21 8.26904 55.1799 8.33266 55.1474 8.39393C55.0849 8.58243 55.0085 8.77094 54.9459 8.95945C54.8834 9.11732 54.8069 9.2587 54.7143 9.38359C54.5915 9.54146 54.4826 9.69698 54.3599 9.85485C54.2209 10.0434 54.1282 10.0599 53.9267 9.97974C53.7576 9.91612 53.6024 9.85485 53.4333 9.79123C53.3569 9.7606 53.2944 9.71347 53.2179 9.68048C52.9098 9.56974 52.7709 9.31997 52.7245 9.00422C52.6481 8.53295 52.662 8.07818 52.662 7.62105C52.6782 7.24404 52.7083 6.86702 52.7384 6.50651C52.7384 6.34863 52.7685 6.20725 52.801 6.05173C52.8774 5.64409 52.9562 5.23409 53.0326 4.82644C53.0488 4.71569 53.0789 4.6073 53.1554 4.51305C53.387 4.56018 53.8966 4.63793 54.0657 4.73219C54.1282 4.82644 54.112 4.9042 54.0958 4.98431C54.0796 5.1092 54.0657 5.23644 54.0495 5.34483C54.0495 5.46972 54.0333 5.6111 54.0194 5.73834C54.0032 5.83259 54.0032 5.91035 54.0032 6.00461C53.9869 6.20961 53.9869 6.42875 53.9568 6.63375C53.9267 6.74449 53.9406 6.85289 53.9406 6.96363C53.9406 7.34065 53.9406 7.70117 53.9105 8.07818C53.8943 8.18893 53.9267 8.31381 53.9267 8.4387C53.9267 8.6437 53.9267 8.86284 53.9267 9.06784C53.9267 9.16209 53.9568 9.00422 53.9568 9.09847C53.9568 9.1291 53.9869 9.1456 54.0032 9.17623C54.0333 9.15974 54.0657 9.15974 54.0796 9.1456C54.2348 8.98772 54.0495 9.1456 54.2024 8.98772C54.2649 8.90996 54.3251 8.82985 54.3715 8.7356C54.4641 8.54709 54.5568 8.35858 54.6332 8.17008C54.8648 7.63519 55.0803 7.10266 55.298 6.55128C55.4671 6.11064 55.6061 5.63938 55.6848 5.16811C55.7311 4.94897 55.7613 4.71334 55.8238 4.49184C55.8238 4.42822 55.8701 4.36696 55.8863 4.30334C55.9141 4.30569 55.9466 4.29155 55.9605 4.30569Z" fill="#9B9B9B"/>
<path d="M60.5305 4.38551C60.6394 4.47977 60.7622 4.57402 60.871 4.66827C60.9011 4.87327 60.9011 5.06178 60.871 5.25029C60.8247 5.53305 60.7622 5.81581 60.6857 6.09857C60.5931 6.42845 60.4078 6.69472 60.1298 6.88323C59.8681 7.07173 59.604 7.24374 59.3121 7.35449C59.282 7.35449 59.282 7.37099 59.2496 7.40162C59.0643 8.09202 58.9554 8.81542 59.2033 9.53646C59.4349 9.50582 59.6364 9.4422 59.7893 9.2537C60.051 8.9403 60.3452 8.64105 60.607 8.31116C60.9011 7.96478 61.2555 7.41576 61.4409 7.00811C61.5034 6.96098 61.5335 6.99162 61.5798 7.02461C61.7026 7.13535 61.8277 7.24374 61.9667 7.37099C61.9829 7.40162 61.9504 7.43461 61.9366 7.46524C61.7512 7.748 61.427 8.20277 61.2416 8.48553C61.0726 8.72116 60.9011 8.9568 60.7158 9.1618C60.5769 9.31967 60.468 9.47519 60.3452 9.63306C60.2225 9.79094 60.0974 9.91582 59.9283 10.0101C59.6665 10.1515 59.4025 10.135 59.1708 9.96295C58.9392 9.80508 58.6914 9.63307 58.4759 9.46105C58.3671 9.3668 58.2744 9.24191 58.1818 9.11467C57.9965 8.84841 57.8575 8.56565 57.781 8.2499C57.7509 8.0449 57.7347 7.82576 57.7648 7.62076C57.8111 7.19662 57.92 6.78897 58.1053 6.41196C58.2281 6.15983 58.3532 5.91006 58.4922 5.67443C58.6612 5.40816 58.8327 5.15603 59.0017 4.90391C59.2172 4.60465 59.4812 4.36902 59.8194 4.2135C59.882 4.18287 59.9584 4.14988 60.0209 4.13574C60.2364 4.16402 60.3916 4.24413 60.5305 4.38551ZM59.8657 6.48972C60.0348 6.36483 60.1599 6.17633 60.2364 5.97133C60.329 5.75219 60.3753 5.51655 60.4054 5.28092C60.4217 5.13954 60.4518 4.99816 60.4054 4.85678C60.2201 4.98167 60.0974 5.13954 59.9885 5.32805C59.7569 5.78282 59.6341 6.27058 59.4164 6.78897C59.6202 6.69236 59.743 6.58397 59.8657 6.48972Z" fill="#9B9B9B"/>
<path d="M64.0143 9.83337C63.9726 9.88521 63.9309 9.9347 63.8707 9.9724C63.5673 10.2363 63.2337 10.2976 62.8793 10.1562C62.5434 10.029 62.2191 9.86872 61.8972 9.72498C61.6702 9.61895 61.5312 9.44222 61.508 9.17596C61.4918 8.98745 61.4293 8.80366 61.4131 8.61751C61.3806 8.41486 61.1629 7.52181 61.281 7.28854C61.3413 7.28382 61.3876 7.26262 61.4478 7.24141C61.5937 7.30739 61.7235 7.38986 61.8856 7.45348C61.9203 7.67026 62.1242 8.59866 62.2052 8.81308C62.2701 9.02751 62.2886 9.24665 62.4137 9.42573C62.4786 9.45165 62.5226 9.43044 62.5666 9.41159C62.7866 9.28199 62.9094 9.08171 62.9349 8.82722C62.9581 8.55624 63.0113 8.28526 62.9117 8.02607C62.8955 8.01193 62.8932 7.99544 62.8909 7.9648C62.877 7.63492 62.7589 7.33095 62.6685 7.00813C62.5596 6.65468 62.5434 6.27767 62.5249 5.90066C62.5967 5.48359 62.7172 5.0783 62.9812 4.73898C63.1781 4.501 63.4121 4.33841 63.7155 4.2795C63.9309 4.27479 64.1255 4.35255 64.3038 4.4468C64.4174 4.51513 64.5494 4.58347 64.6791 4.64944C64.7602 4.6895 64.8436 4.76019 64.9107 4.81674C64.9825 4.92042 65.0219 5.02646 64.9872 5.15606C64.9478 5.23853 64.9408 5.33278 64.8714 5.41997C64.7579 5.36813 64.6305 5.31629 64.517 5.26209C64.5007 5.24795 64.4845 5.23381 64.466 5.20318C64.4127 5.11364 64.4475 5.00054 64.4405 4.90628C64.4382 4.87565 64.4197 4.84502 64.4011 4.80025C64.1626 4.91571 64.0259 5.11835 63.9031 5.31864C63.7665 5.52129 63.7248 5.75928 63.6692 6.00198C63.6182 6.30595 63.6298 6.61934 63.7178 6.91152C63.7363 6.95629 63.741 7.00342 63.7433 7.03641C63.7641 7.28618 63.8614 7.49825 63.9425 7.72681C64.0421 7.98601 64.1139 8.26406 64.1834 8.52561C64.2019 8.57038 64.2066 8.61751 64.2274 8.67877" fill="#9B9B9B"/>
</svg>
