<svg width="65" height="37" viewBox="0 0 65 37" fill="none" xmlns="http://www.w3.org/2000/svg">
<g clip-path="url(#clip0_605_235)">
<path d="M43.3618 34.3167C43.3618 32.2514 43.3793 25.7302 43.3793 25.7302H41.2411L41.2239 34.6155C41.2239 34.6155 41.1036 36.8743 43.3446 36.8743H49.4843C49.4843 36.8743 49.8793 36.1008 50.3943 34.9495H43.9889C43.6454 34.9407 43.3618 34.6771 43.3618 34.3167ZM40.1936 36.8743C40.1936 36.8743 40.2964 34.9495 39.2832 34.9495C37.8064 34.9495 34.9214 34.9495 33.642 34.9495C33.29 34.9495 33.0066 34.6771 33.0066 34.3167C33.0066 32.2514 33.0066 25.7302 33.0066 25.7302H30.8686V34.6155C30.8686 34.6155 30.7484 36.8743 32.9894 36.8743H40.1936ZM57.1261 28.1471C57.2379 27.9362 57.4439 27.655 57.8132 27.6462C58.2511 27.655 58.3882 27.9186 58.5 28.1383C59.2643 29.5973 60.7754 33.0424 60.7754 33.0424H54.8679C54.8593 33.0511 56.3707 29.6148 57.1261 28.1471ZM54.1896 34.7386H61.4364L62.4154 36.8743H64.94L60.2775 26.8552C60.2775 26.8552 59.8396 25.7566 58.6975 25.7566H56.9371C55.8039 25.7566 55.3575 26.8552 55.3575 26.8552L50.6864 36.8656H53.2193L54.1896 34.7386ZM18.4181 23.3573C18.5211 23.5067 18.753 23.4452 18.7358 23.2607C18.607 22.1445 18.2807 21.002 17.5423 20.1407C16.8124 19.2882 15.782 18.9367 14.7001 18.7697C13.5238 18.5763 12.3217 18.6379 11.1281 18.7082C10.5958 18.7345 9.98614 18.8664 9.45375 18.7609C8.82696 18.6379 8.83554 18.0227 9.01586 17.5217C9.10171 17.2844 9.32496 17.0208 9.33357 16.7659C9.34214 16.6429 9.29061 16.5198 9.22193 16.4143L9.08454 16.2474C8.99011 16.1595 8.96432 16.1595 9.00725 16.0188C9.05021 15.8782 9.11889 15.7464 9.20475 15.6409C9.29921 15.5355 9.46236 15.5179 9.48811 15.3509C9.52246 15.1752 9.38507 15.1048 9.25629 15.0433C9.09314 14.973 8.68957 14.6302 8.88707 14.4545C9.12746 14.2348 9.28204 13.9272 9.29061 13.602C9.29921 13.3295 9.18757 13.0747 8.96432 12.9165C8.70675 12.7319 8.37186 12.4771 8.32036 12.1431C8.29457 11.9761 8.82696 11.6949 8.95575 11.607C9.25629 11.396 9.55682 11.1939 9.84875 10.9742C10.4069 10.5611 11.0251 10.0953 11.3686 9.46255C11.7034 8.85615 11.6261 8.07395 11.7721 7.40601C11.8408 7.08964 11.9439 6.77323 12.0813 6.48321C12.4075 5.9559 12.7939 5.4901 13.2834 5.12098L13.4036 5.0331L13.4207 5.01552L13.6011 4.90129C13.7814 4.78703 13.9875 4.68156 14.1592 4.54972C14.3996 4.36516 14.537 4.09271 14.7259 3.85544C15.6962 2.61624 17.2246 2.22954 18.7444 2.2647C21.037 2.31743 22.9861 3.78514 24.7807 5.08585C26.7556 6.51837 28.6962 8.03003 30.8085 9.25165C31.8732 9.86684 32.9809 10.4117 34.183 10.6842C35.5139 10.9918 36.8879 11.0006 38.2271 10.816C39.3436 10.6666 40.4339 10.3854 41.49 10.0074C42.4261 9.67349 43.3189 9.25165 44.2293 8.85615C45.4571 8.32885 46.7107 7.81909 48.0243 7.52906C49.175 7.28299 50.4714 7.19511 51.5707 7.68724C52.0429 7.89818 52.6354 8.38156 52.9532 8.79461C53.0646 8.93524 53.2964 9.20769 53.3482 8.88253C53.4082 8.53095 53.3396 8.14429 53.2021 7.82788C52.79 6.8875 52.1375 6.2811 50.9868 5.78893C50.0679 5.39343 49.0979 5.25283 48.1189 5.3495C46.1696 5.54286 44.3321 6.30744 42.5289 7.02813C41.2068 7.55544 39.8929 8.18821 38.4846 8.41673C36.3725 8.76827 34.0713 8.35519 32.1995 7.32692C30.3534 6.31623 28.6618 5.01552 26.9617 3.78514C25.2272 2.53715 23.5099 1.28037 21.5007 0.542131C19.5515 -0.178534 17.4221 -0.231265 15.5244 0.691538C14.5885 1.14855 13.7041 1.90436 13.3435 2.92384C13.2834 3.08204 13.2576 3.2666 13.1631 3.40721L13.0429 3.53904C12.9571 3.59177 12.8798 3.64451 12.8454 3.66208L12.7166 3.74118L12.6394 3.77635C12.4848 3.85544 12.3388 3.96091 12.1929 4.07517C11.9095 4.27727 11.6433 4.48821 11.4029 4.75186C10.6902 5.52527 10.3468 6.54475 10.1149 7.55544C10.0463 7.8806 9.98614 8.20579 9.92604 8.53975C9.86593 8.91766 9.74571 9.15497 9.47954 9.42742C8.9815 9.92835 8.37186 10.3238 7.78796 10.7193C7.52179 10.9039 7.24704 11.0797 6.97225 11.2642C6.81771 11.3697 6.58586 11.4752 6.49143 11.6333C6.19946 12.0991 6.61164 12.688 6.92075 13.0044C7.10107 13.1801 7.393 13.3383 7.41875 13.6108C7.44454 13.8305 7.29854 14.0414 7.15257 14.1908C7.07529 14.2699 6.92932 14.3402 6.91214 14.4545C6.89496 14.5863 6.88639 14.7269 6.92075 14.85C6.98943 15.1488 7.22129 15.3421 7.46168 15.5091C7.06671 15.6849 6.40554 16.3792 6.92075 16.7835C7.22986 17.0208 7.20411 17.2141 7.11821 17.5569C7.03236 17.8996 6.96368 18.2511 6.95507 18.6115C6.9465 19.2003 7.13539 19.7716 7.68493 20.0528C8.26025 20.3429 8.99868 20.2901 9.6255 20.2638C12.0813 20.1495 14.8633 19.4816 16.9326 21.2305C17.2246 21.4766 17.4822 21.7578 17.714 22.0654C17.86 22.2676 17.9888 22.4697 18.109 22.6894C18.212 22.8827 18.2807 23.1552 18.4181 23.3573ZM44.6757 16.4934C42.3661 17.3811 40.0818 18.3918 37.6089 18.6466C35.282 18.8839 32.9465 18.4357 30.9544 17.1877C29.2715 16.1331 27.8117 14.7445 26.3091 13.4526C25.5449 12.7934 24.7721 12.1079 23.8276 11.7124C23.3468 11.5103 22.7972 11.3433 22.2649 11.3872C22.1017 11.396 21.5522 11.4839 21.6638 11.7827C21.8355 11.9234 22.0931 11.9058 22.2906 12.0025C22.4881 12.0991 22.6684 12.2134 22.8488 12.3364C23.5185 12.8022 24.1281 13.3647 24.6949 13.9623C25.5191 14.8324 26.2748 15.7728 27.1077 16.6516C27.8976 17.4953 28.7477 18.3215 29.6493 19.0421C30.3534 19.6046 31.1261 20.0616 31.9676 20.3868C33.0495 20.7911 34.2087 20.9844 35.3593 21.0811C38.1757 21.3184 40.8975 20.6065 43.5079 19.587C45.8864 18.6642 48.2132 17.5657 50.755 17.135C52.5239 16.8362 54.4986 16.8889 56.01 17.9875C56.4821 18.3215 56.86 18.7609 57.1089 19.2882L57.2036 19.464C57.3579 19.6749 57.4782 19.1564 57.5039 19.0509C57.6243 18.506 57.5211 17.8469 57.2807 17.3547C56.92 16.6077 56.2332 16.1595 55.5636 15.7816C54.6875 15.2894 53.6057 15.1048 52.6096 15.0082C49.8964 14.7094 47.1914 15.5355 44.6757 16.4934ZM48.9261 10.0778C46.7879 10.3414 44.8732 11.3697 42.8811 12.1431C41.6789 12.6177 40.4425 13.0044 39.1718 13.268C37.8579 13.5405 36.51 13.6899 35.1704 13.4877C34.14 13.3295 33.1698 12.9604 32.2424 12.4946C31.4009 12.0816 30.5595 11.6509 29.7781 11.1412C28.0951 10.0514 26.541 8.75068 25.0125 7.45876C23.4756 6.15805 21.638 4.83095 19.5258 5.06827C19.0363 5.12098 18.5555 5.26162 18.1261 5.50769C17.9716 5.60436 17.319 5.97348 17.4221 6.21076C17.4908 6.37777 17.7398 6.33381 17.8771 6.30744C18.1519 6.26351 18.4181 6.21955 18.6929 6.19321C19.1909 6.14925 19.6803 6.21076 20.1612 6.33381C21.4663 6.59747 22.5911 7.42359 23.5786 8.28489C24.3428 8.95283 25.0555 9.68228 25.7596 10.4117C27.2794 11.9761 28.8164 13.6899 30.7827 14.7006C33.1783 15.931 35.8746 16.344 38.5193 15.8958C40.8804 15.4915 43.2418 14.6918 45.3796 13.602C46.6336 12.9692 47.93 12.3892 49.3211 12.1431C50.5404 11.9234 51.8625 11.897 53.0132 12.4067C53.7432 12.7319 54.3529 13.2328 54.9193 13.7953C54.9968 13.8745 55.1168 14.0238 55.2371 14.0063C55.3832 13.9799 55.3575 13.6723 55.3575 13.5756C55.3661 13.1713 55.2971 12.7758 55.1425 12.4067C54.7564 11.5191 53.9232 10.9566 53.0646 10.6051C51.7511 10.0602 50.3171 9.91076 48.9261 10.0778ZM20.9254 36.8392H29.5119C29.5119 36.8392 29.5892 34.9495 28.576 34.8968C26.7384 34.8968 22.7028 34.9055 21.3118 34.9055C20.5819 34.9055 20.6592 34.2201 20.6592 34.2201V32.1283H26.893V30.1861H20.6592V28.3053C20.6592 28.3053 20.6592 27.7077 21.3118 27.7077H28.5588C29.3402 27.7077 29.4518 25.7654 29.4518 25.7654H20.8824C18.3666 25.7654 18.4524 27.9977 18.4524 27.9977V34.5452C18.4439 34.554 18.4782 36.8392 20.9254 36.8392ZM12.5278 33.5872C12.3388 33.0687 10.9135 28.9557 10.1579 26.8201C10.175 26.8552 9.95179 25.95 9.36789 25.9412C9.18757 25.906 8.07993 25.9148 8.07993 25.9148C8.07993 25.9148 7.45311 25.8181 7.09246 26.8376C6.32829 28.9732 4.88575 33.0511 4.69682 33.5785C4.45639 32.8139 2.25826 25.7654 2.25826 25.7654H0L3.51189 36.8392H5.61557C5.61557 36.8392 8.32893 29.5709 8.58654 28.8766C8.83554 29.5797 11.4459 36.8392 11.4459 36.8392H13.6526L17.2761 25.7654H15.0522C15.0522 25.7654 12.7682 32.8227 12.5278 33.5872Z" fill="#B7B7B7"/>
</g>
<defs>
<clipPath id="clip0_605_235">
<rect width="65" height="37" fill="white"/>
</clipPath>
</defs>
</svg>
