<svg width="65" height="13" viewBox="0 0 65 13" fill="none" xmlns="http://www.w3.org/2000/svg">
<path d="M5.30671 3.82354C6.32643 3.82354 7.13804 4.15048 7.74155 4.80436C8.35547 5.44803 8.66242 6.33691 8.66242 7.47099V12.4671H6.00907V7.82348C6.00907 7.25133 5.85819 6.80689 5.55644 6.49016C5.25468 6.17344 4.84888 6.01507 4.33902 6.01507C3.82916 6.01507 3.42335 6.17344 3.12159 6.49016C2.81984 6.80689 2.66896 7.25133 2.66896 7.82348V12.4671H0V3.91549H2.66896V5.04957C2.9395 4.67154 3.30369 4.37525 3.76152 4.1607C4.21935 3.93592 4.73442 3.82354 5.30671 3.82354Z" fill="#B7B7B7"/>
<path d="M11.8594 3.02661C11.3911 3.02661 11.0061 2.89379 10.7044 2.62815C10.413 2.35229 10.2674 2.01513 10.2674 1.61667C10.2674 1.20799 10.413 0.870835 10.7044 0.605193C11.0061 0.329335 11.3911 0.191406 11.8594 0.191406C12.3172 0.191406 12.6918 0.329335 12.9831 0.605193C13.2849 0.870835 13.4358 1.20799 13.4358 1.61667C13.4358 2.01513 13.2849 2.35229 12.9831 2.62815C12.6918 2.89379 12.3172 3.02661 11.8594 3.02661ZM13.1861 3.91549V12.4671H10.5171V3.91549H13.1861Z" fill="#B7B7B7"/>
<path d="M26.2331 3.82354C27.3152 3.82354 28.1737 4.14537 28.8084 4.78904C29.4535 5.43271 29.7761 6.32669 29.7761 7.47099V12.4671H27.1227V7.82348C27.1227 7.27176 26.9719 6.84776 26.6701 6.55147C26.3788 6.24496 25.973 6.0917 25.4527 6.0917C24.9324 6.0917 24.5214 6.24496 24.2197 6.55147C23.9283 6.84776 23.7826 7.27176 23.7826 7.82348V12.4671H21.1293V7.82348C21.1293 7.27176 20.9784 6.84776 20.6767 6.55147C20.3853 6.24496 19.9795 6.0917 19.4592 6.0917C18.939 6.0917 18.528 6.24496 18.2262 6.55147C17.9349 6.84776 17.7892 7.27176 17.7892 7.82348V12.4671H15.1202V3.91549H17.7892V4.98827C18.0597 4.63068 18.4135 4.34971 18.8505 4.14537C19.2875 3.93081 19.7818 3.82354 20.3333 3.82354C20.9888 3.82354 21.5715 3.96147 22.0814 4.23732C22.6016 4.51318 23.0074 4.90653 23.2988 5.41738C23.6006 4.9474 24.0116 4.56427 24.5318 4.26797C25.0521 3.97168 25.6192 3.82354 26.2331 3.82354Z" fill="#B7B7B7"/>
<path d="M34.3117 5.1262C34.5614 4.72774 34.9204 4.4059 35.3886 4.1607C35.8569 3.91549 36.3927 3.79289 36.9963 3.79289C37.7142 3.79289 38.3646 3.97168 38.9472 4.32928C39.5299 4.68687 39.9878 5.19772 40.3207 5.86182C40.6641 6.52592 40.8358 7.2973 40.8358 8.17596C40.8358 9.05462 40.6641 9.83111 40.3207 10.5054C39.9878 11.1695 39.5299 11.6855 38.9472 12.0533C38.3646 12.4109 37.7142 12.5897 36.9963 12.5897C36.3823 12.5897 35.8465 12.4722 35.3886 12.2372C34.9308 11.992 34.5718 11.6702 34.3117 11.2717V12.4671H31.6427V1.12626H34.3117V5.1262ZM38.12 8.17596C38.12 7.52208 37.9327 7.01123 37.5581 6.64342C37.194 6.26539 36.7413 6.07638 36.2002 6.07638C35.6696 6.07638 35.2169 6.26539 34.8424 6.64342C34.4782 7.02144 34.2961 7.5374 34.2961 8.19129C34.2961 8.84517 34.4782 9.36113 34.8424 9.73916C35.2169 10.1172 35.6696 10.3062 36.2002 10.3062C36.7309 10.3062 37.1835 10.1172 37.5581 9.73916C37.9327 9.35091 38.12 8.82985 38.12 8.17596Z" fill="#B7B7B7"/>
<path d="M44.905 1.12626V12.4671H42.236V1.12626H44.905Z" fill="#B7B7B7"/>
<path d="M55.0489 8.05336C55.0489 8.29857 55.0333 8.55399 55.0021 8.81963H48.9618C49.0035 9.35091 49.1751 9.75959 49.4769 10.0457C49.7891 10.3215 50.1689 10.4595 50.6163 10.4595C51.2822 10.4595 51.7453 10.1836 52.0054 9.63188H54.846C54.7004 10.1938 54.435 10.6996 54.05 11.1491C53.6754 11.5986 53.202 11.9511 52.6297 12.2066C52.0574 12.462 51.4175 12.5897 50.7099 12.5897C49.8567 12.5897 49.0971 12.4109 48.4312 12.0533C47.7652 11.6957 47.245 11.1849 46.8704 10.5208C46.4958 9.85665 46.3085 9.08016 46.3085 8.19129C46.3085 7.30241 46.4906 6.52592 46.8548 5.86182C47.2293 5.19772 47.7496 4.68687 48.4156 4.32928C49.0815 3.97168 49.8463 3.79289 50.7099 3.79289C51.5528 3.79289 52.3019 3.96657 52.9575 4.31395C53.613 4.66133 54.1229 5.15685 54.4871 5.80052C54.8616 6.44419 55.0489 7.19513 55.0489 8.05336ZM52.3175 7.36371C52.3175 6.91417 52.1615 6.55657 51.8493 6.29093C51.5371 6.02529 51.1469 5.89247 50.6787 5.89247C50.2313 5.89247 49.8515 6.02018 49.5393 6.27561C49.2376 6.53103 49.0503 6.89373 48.9774 7.36371H52.3175Z" fill="#B7B7B7"/>
<path d="M60.8272 6.0917H59.3912V12.4671H56.7223V6.0917H55.7546V3.91549H56.7223V3.67028C56.7223 2.61794 57.0292 1.82101 57.6432 1.27951C58.2571 0.727797 59.1571 0.451939 60.3433 0.451939C60.541 0.451939 60.6867 0.457047 60.7804 0.467264V2.68945C60.2705 2.6588 59.9115 2.73032 59.7034 2.90401C59.4953 3.0777 59.3912 3.38931 59.3912 3.83886V3.91549H60.8272V6.0917Z" fill="#B7B7B7"/>
<path d="M63.4236 3.02661C62.9554 3.02661 62.5704 2.89379 62.2686 2.62815C61.9773 2.35229 61.8316 2.01513 61.8316 1.61667C61.8316 1.20799 61.9773 0.870835 62.2686 0.605193C62.5704 0.329335 62.9554 0.191406 63.4236 0.191406C63.8814 0.191406 64.256 0.329335 64.5474 0.605193C64.8491 0.870835 65 1.20799 65 1.61667C65 2.01513 64.8491 2.35229 64.5474 2.62815C64.256 2.89379 63.8814 3.02661 63.4236 3.02661ZM64.7503 3.91549V12.4671H62.0813V3.91549H64.7503Z" fill="#B7B7B7"/>
</svg>
